<?xml version="1.0" encoding="UTF-8" standalone="no"?>
<!-- Generator: Adobe Illustrator 16.0.0, SVG Export Plug-In . SVG Version: 6.00 Build 0)  -->

<svg
   xmlns:dc="http://purl.org/dc/elements/1.1/"
   xmlns:cc="http://creativecommons.org/ns#"
   xmlns:rdf="http://www.w3.org/1999/02/22-rdf-syntax-ns#"
   xmlns:svg="http://www.w3.org/2000/svg"
   xmlns="http://www.w3.org/2000/svg"
   xmlns:sodipodi="http://sodipodi.sourceforge.net/DTD/sodipodi-0.dtd"
   xmlns:inkscape="http://www.inkscape.org/namespaces/inkscape"
   version="1.1"
   id="Capa_1"
   x="0px"
   y="0px"
   width="640"
   height="125"
   viewBox="0 0 640 125"
   enable-background="new 0 0 584 125"
   xml:space="preserve"
   sodipodi:docname="sedeculta.svg"
   inkscape:version="0.92.4 (5da689c313, 2019-01-14)"><metadata
   id="metadata235"><rdf:RDF><cc:Work
       rdf:about=""><dc:format>image/svg+xml</dc:format><dc:type
         rdf:resource="http://purl.org/dc/dcmitype/StillImage" /><dc:title></dc:title></cc:Work></rdf:RDF></metadata><defs
   id="defs233">
	
	
	
	
	
	
	
	
	
	
	
	
	
	
	
	
	
	
	
	
	
	
	
	
	
	
	
	
	
	
	
	
	
	
	
	

	
	

	
	

	
	

	
	

	
	
</defs><sodipodi:namedview
   pagecolor="#ffffff"
   bordercolor="#666666"
   borderopacity="1"
   objecttolerance="10"
   gridtolerance="10"
   guidetolerance="10"
   inkscape:pageopacity="0"
   inkscape:pageshadow="2"
   inkscape:window-width="1920"
   inkscape:window-height="1017"
   id="namedview231"
   showgrid="false"
   inkscape:zoom="0.57934265"
   inkscape:cx="437.83341"
   inkscape:cy="-234.73204"
   inkscape:window-x="-8"
   inkscape:window-y="-8"
   inkscape:window-maximized="1"
   inkscape:current-layer="Capa_1" />
<path
   d="m 397.559,119.656 c -0.429,0 -0.771,-0.349 -0.771,-0.771 V 7.116 c 0,-0.425 0.343,-0.773 0.771,-0.773 0.428,0 0.773,0.348 0.773,0.773 v 111.769 c 0,0.423 -0.346,0.771 -0.773,0.771"
   id="path2"
   inkscape:connector-curvature="0"
   style="fill:#5b5b5f" />



















































































































<g
   id="g3750"
   transform="translate(315.12438,-123.91415)"><g
     id="text1066"
     style="font-style:normal;font-variant:normal;font-weight:900;font-stretch:normal;font-size:37.4064827px;line-height:1.25;font-family:'Univia Pro';-inkscape-font-specification:'Univia Pro Heavy';letter-spacing:0px;word-spacing:0px;fill:#003163;fill-opacity:1;stroke:none;stroke-width:0.93516213"
     aria-label="SEDECULTA"><path
       id="path3629"
       style="stroke-width:0.93516213"
       d="m 114.83784,153.11953 c -7.81795,0 -11.07232,2.35661 -11.07232,7.78055 v 0.78553 c 0,3.70324 0.97257,6.09726 2.43142,7.29427 0.71073,0.56109 1.6833,1.04738 2.8803,1.45885 l 5.7606,1.98254 c 1.90773,0.63591 2.54364,1.00998 2.54364,2.20699 v 0.26184 c 0,0.93516 -0.67331,1.38404 -2.01995,1.38404 h -10.9601 c -0.5985,0 -0.89775,0.29925 -0.89775,0.86035 v 3.89027 c 0,0.5611 0.26184,0.93517 0.82294,1.04739 3.59102,0.71072 6.69576,1.04738 9.35162,1.04738 7.74314,0 11.63342,-2.61846 11.63342,-7.81796 v -0.89775 c 0,-3.62843 -1.19701,-5.87282 -2.73068,-6.8828 -0.78553,-0.52369 -1.87032,-1.04738 -3.29177,-1.57107 l -5.94763,-2.13217 c -1.08479,-0.41147 -1.64588,-1.04738 -1.64588,-1.90773 v -0.41147 c 0,-1.00997 0.71072,-1.53367 2.13217,-1.53367 h 9.2768 c 0.5611,0 0.86035,-0.26184 0.86035,-0.82294 v -4.22693 c 0,-0.37407 -0.26184,-0.63591 -0.82294,-0.82294 -2.65586,-0.63591 -5.42394,-0.97257 -8.30424,-0.97257 z"
       inkscape:connector-curvature="0" /><path
       id="path3631"
       style="stroke-width:0.93516213"
       d="m 129.07393,153.34397 c -0.37406,0 -0.5611,0.18703 -0.5611,0.5985 v 28.39152 c 0,0.41147 0.18704,0.59851 0.5611,0.59851 h 19.93766 c 0.41147,0 0.5985,-0.18704 0.5985,-0.5611 v -5.72319 c 0,-0.37407 -0.18703,-0.5611 -0.5985,-0.5611 h -12.6434 v -4.71322 h 11.63342 c 0.41147,0 0.5985,-0.18703 0.5985,-0.5611 v -5.34912 c 0,-0.37407 -0.18703,-0.5611 -0.5985,-0.5611 h -11.63342 v -4.71322 h 12.6434 c 0.41147,0 0.5985,-0.18703 0.5985,-0.56109 v -5.7232 c 0,-0.37406 -0.18703,-0.56109 -0.5985,-0.56109 z"
       inkscape:connector-curvature="0" /><path
       id="path3633"
       style="stroke-width:0.93516213"
       d="m 165.28575,153.11953 c -3.89028,0 -7.66833,0.18703 -11.37158,0.52369 -0.37406,0.0374 -0.56109,0.18703 -0.56109,0.48628 v 28.05487 c 0,0.37406 0.11222,0.33665 0.56109,0.41147 3.70325,0.33666 7.4813,0.52369 11.37158,0.52369 4.52618,0 7.78054,-1.1596 9.68827,-3.47881 1.94514,-2.3566 2.91771,-6.17207 2.91771,-11.44638 0,-5.34913 -0.97257,-9.20199 -2.91771,-11.5586 -1.90773,-2.35661 -5.16209,-3.51621 -9.68827,-3.51621 z m 0,6.84538 c 3.40399,0 4.6384,2.39402 4.6384,8.22943 0,5.72319 -1.23441,8.0798 -4.6384,8.0798 h -4.07731 v -16.30923 z"
       inkscape:connector-curvature="0" /><path
       id="path3635"
       style="stroke-width:0.93516213"
       d="m 182.0421,153.34397 c -0.37407,0 -0.5611,0.18703 -0.5611,0.5985 v 28.39152 c 0,0.41147 0.18703,0.59851 0.5611,0.59851 h 19.93765 c 0.41147,0 0.59851,-0.18704 0.59851,-0.5611 v -5.72319 c 0,-0.37407 -0.18704,-0.5611 -0.59851,-0.5611 h -12.64339 v -4.71322 h 11.63342 c 0.41147,0 0.5985,-0.18703 0.5985,-0.5611 v -5.34912 c 0,-0.37407 -0.18703,-0.5611 -0.5985,-0.5611 h -11.63342 v -4.71322 h 12.64339 c 0.41147,0 0.59851,-0.18703 0.59851,-0.56109 v -5.7232 c 0,-0.37406 -0.18704,-0.56109 -0.59851,-0.56109 z"
       inkscape:connector-curvature="0" /><path
       id="path3637"
       style="stroke-width:0.93516213"
       d="m 218.06688,153.11953 c -5.08729,0 -8.0424,0.78553 -10.02494,3.17955 -1.94514,2.35661 -2.58105,5.798 -2.58105,11.78304 0,5.83541 0.86035,9.8005 2.58105,11.89526 1.7581,2.09477 5.08728,3.14215 10.02494,3.14215 3.32917,0 5.91022,-0.26185 7.74314,-0.78554 0.74813,-0.18703 1.08479,-0.48628 1.08479,-1.27182 v -4.18953 c 0,-0.41147 -0.18704,-0.5985 -0.5611,-0.5985 h -8.26683 c -1.90774,0 -3.14215,-0.5611 -3.74065,-1.68329 -0.59851,-1.1596 -0.89776,-3.32918 -0.89776,-6.50873 0,-3.17955 0.29925,-5.31172 0.89776,-6.43391 0.5985,-1.1222 1.83291,-1.6833 3.74065,-1.6833 h 8.26683 c 0.37406,0 0.5611,-0.18703 0.5611,-0.5985 v -4.18953 c 0,-0.74812 -0.29926,-1.00997 -1.08479,-1.27182 -1.98255,-0.52369 -4.56359,-0.78553 -7.74314,-0.78553 z"
       inkscape:connector-curvature="0" /><path
       id="path3639"
       style="stroke-width:0.93516213"
       d="m 247.71618,153.34397 c -0.37406,0 -0.56109,0.18703 -0.56109,0.56109 v 14.25187 c 0,3.25437 -0.29925,5.42394 -0.93516,6.50873 -0.63591,1.08479 -1.87033,1.60848 -3.70325,1.60848 -1.83291,0 -3.06733,-0.52369 -3.70324,-1.60848 -0.63591,-1.08479 -0.93516,-3.25436 -0.93516,-6.50873 v -14.25187 c 0,-0.37406 -0.18703,-0.56109 -0.5611,-0.56109 h -6.73316 c -0.37407,0 -0.5611,0.18703 -0.5611,0.56109 v 14.25187 c 0.0374,7.29427 0.86035,11.03492 3.77805,13.16709 1.98255,1.23441 4.56359,1.79551 8.71571,1.79551 6.09726,-0.0748 9.202,-1.00998 10.9601,-4.52619 1.08479,-2.39401 1.53367,-5.49875 1.53367,-10.43641 v -14.25187 c 0,-0.37406 -0.18703,-0.56109 -0.5611,-0.56109 z"
       inkscape:connector-curvature="0" /><path
       id="path3641"
       style="stroke-width:0.93516213"
       d="m 259.77744,153.34397 c -0.37406,0 -0.5611,0.18703 -0.5611,0.5985 v 28.39152 c 0,0.41147 0.18704,0.59851 0.5611,0.59851 h 18.32918 c 0.41147,0 0.5985,-0.18704 0.5985,-0.5611 v -5.72319 c 0,-0.37407 -0.18703,-0.5611 -0.5985,-0.5611 H 267.0717 v -22.14464 c 0,-0.41147 -0.18703,-0.5985 -0.56109,-0.5985 z"
       inkscape:connector-curvature="0" /><path
       id="path3643"
       style="stroke-width:0.93516213"
       d="m 272.56169,153.34397 c -0.41147,0 -0.5985,0.18703 -0.5985,0.56109 v 5.7232 c 0,0.37406 0.18703,0.56109 0.5985,0.56109 h 7.18205 v 22.14464 c 0,0.41147 0.18703,0.59851 0.56109,0.59851 h 6.73317 c 0.37407,0 0.5611,-0.18704 0.5611,-0.59851 v -22.14464 h 7.21945 c 0.41147,0 0.5985,-0.18703 0.5985,-0.56109 v -5.7232 c 0,-0.37406 -0.18703,-0.56109 -0.5985,-0.56109 z"
       inkscape:connector-curvature="0" /><path
       id="path3645"
       style="stroke-width:0.93516213"
       d="m 311.96884,157.68312 c -0.5611,-2.05736 -1.27182,-3.32918 -2.05736,-3.81546 -0.78553,-0.48629 -2.50623,-0.74813 -5.16209,-0.74813 -2.65586,0 -4.37656,0.22444 -5.1621,0.71072 -0.78553,0.48629 -1.49626,1.75811 -2.05735,3.85287 l -6.73317,24.65087 c -0.0748,0.41147 0.0748,0.59851 0.48628,0.59851 h 6.54614 c 0.37406,0 0.41147,-0.14963 0.52369,-0.59851 l 1.98254,-7.33167 h 8.82793 l 1.98255,7.33167 c 0.14962,0.48629 0.18703,0.59851 0.52369,0.59851 h 6.54613 c 0.41147,0 0.5611,-0.18704 0.48629,-0.59851 z m -7.55611,2.13217 c 0.11222,-0.29925 0.48628,-0.29925 0.5985,0 l 2.43142,8.82793 h -5.38653 z"
       inkscape:connector-curvature="0" /></g><g
     id="text1070"
     style="font-style:normal;font-variant:normal;font-weight:normal;font-stretch:normal;font-size:12.028512px;line-height:1.25;font-family:Panton;-inkscape-font-specification:Panton;letter-spacing:0px;word-spacing:0px;fill:#0060a8;fill-opacity:1;stroke:none;stroke-width:1.00237596"
     aria-label="SECRETARÃA DE LA CULTURA
Y LAS ARTES"><path
       id="path3648"
       style="font-style:normal;font-variant:normal;font-weight:normal;font-stretch:normal;font-size:12.028512px;font-family:'Univia Pro';-inkscape-font-specification:'Univia Pro';fill:#0060a8;fill-opacity:1;stroke-width:1.00237596"
       d="m 108.24161,195.84485 c -0.76982,0 -1.27502,0.0361 -1.85239,0.21651 -0.27665,0.0842 -0.51722,0.19246 -0.69765,0.34883 -0.34883,0.28868 -0.60143,0.80591 -0.60143,1.51559 v 0.28869 c 0,1.02242 0.26463,1.70804 1.13068,2.04484 l 2.85076,1.15474 c 0.70968,0.28868 0.91417,0.63751 0.91417,1.29908 v 0.22854 c 0,0.7578 -0.49317,1.05851 -1.56371,1.05851 h -3.29581 c -0.10826,0 -0.1684,0.0601 -0.1684,0.1684 v 0.54128 c 0,0.10826 0.0481,0.1684 0.14434,0.19246 0.95025,0.10825 1.92456,0.1684 2.93496,0.1684 0.75779,0 1.27502,-0.0481 1.85239,-0.20449 0.28868,-0.0842 0.51722,-0.20448 0.69765,-0.36085 0.37289,-0.30072 0.62548,-0.81794 0.62548,-1.52762 v -0.38492 c 0,-1.02242 -0.33679,-1.65993 -1.38327,-2.09296 l -2.62222,-1.08256 c -0.70968,-0.28869 -0.90214,-0.60143 -0.90214,-1.22691 v -0.20449 c 0,-0.70968 0.52926,-1.07053 1.57574,-1.07053 h 2.70641 c 0.10826,0 0.15637,-0.0601 0.15637,-0.18043 v -0.55331 c 0,-0.0962 -0.0601,-0.14435 -0.1684,-0.15637 -0.97431,-0.12029 -1.74413,-0.18043 -2.33353,-0.18043 z"
       inkscape:connector-curvature="0" /><path
       id="path3650"
       style="font-style:normal;font-variant:normal;font-weight:normal;font-stretch:normal;font-size:12.028512px;font-family:'Univia Pro';-inkscape-font-specification:'Univia Pro';fill:#0060a8;fill-opacity:1;stroke-width:1.00237596"
       d="m 112.85473,195.90499 c -0.12028,0 -0.18042,0.0601 -0.18042,0.18043 v 8.74473 c 0,0.12028 0.0601,0.18042 0.18042,0.18042 h 5.62935 c 0.12028,0 0.18043,-0.0601 0.18043,-0.18042 v -0.70969 c 0,-0.12028 -0.0602,-0.18042 -0.18043,-0.18042 h -4.59489 v -2.81468 h 4.18592 c 0.12028,0 0.18043,-0.0601 0.18043,-0.18042 v -0.69766 c 0,-0.12028 -0.0601,-0.18042 -0.18043,-0.18042 h -4.18592 v -3.09133 h 4.59489 c 0.12028,0 0.18043,-0.0601 0.18043,-0.18043 v -0.70968 c 0,-0.12029 -0.0602,-0.18043 -0.18043,-0.18043 z"
       inkscape:connector-curvature="0" /><path
       id="path3652"
       style="font-style:normal;font-variant:normal;font-weight:normal;font-stretch:normal;font-size:12.028512px;font-family:'Univia Pro';-inkscape-font-specification:'Univia Pro';fill:#0060a8;fill-opacity:1;stroke-width:1.00237596"
       d="m 123.59507,195.84485 c -1.49154,0 -2.35759,0.22854 -2.92293,0.98634 -0.56534,0.73374 -0.73374,1.79224 -0.73374,3.63261 0,1.84036 0.1684,2.89887 0.73374,3.63261 0.56534,0.73374 1.41936,0.97431 2.92293,0.97431 0.97431,0 1.72008,-0.0361 2.2373,-0.10826 0.13231,-0.0241 0.19246,-0.0962 0.19246,-0.21651 v -0.56534 c 0,-0.12029 -0.0601,-0.18043 -0.18043,-0.18043 h -2.24933 c -1.02243,0 -1.68399,-0.24057 -1.98471,-0.70968 -0.30071,-0.46911 -0.45708,-1.41937 -0.45708,-2.8267 0,-1.41937 0.15637,-2.36962 0.45708,-2.83873 0.30072,-0.46911 0.96228,-0.70968 1.98471,-0.70968 h 2.24933 c 0.12028,0 0.18043,-0.0601 0.18043,-0.18043 v -0.56534 c 0,-0.12029 -0.0601,-0.19246 -0.19246,-0.20449 -0.56534,-0.0842 -1.31111,-0.12028 -2.2373,-0.12028 z"
       inkscape:connector-curvature="0" /><path
       id="path3654"
       style="font-style:normal;font-variant:normal;font-weight:normal;font-stretch:normal;font-size:12.028512px;font-family:'Univia Pro';-inkscape-font-specification:'Univia Pro';fill:#0060a8;fill-opacity:1;stroke-width:1.00237596"
       d="m 130.19402,195.84485 c -0.91416,0 -1.76819,0.0241 -2.56207,0.0842 -0.14434,0.012 -0.18043,0.0361 -0.18043,0.18043 v 8.72067 c 0,0.14434 0.0361,0.18042 0.18043,0.18042 h 0.85402 c 0.14435,0 0.18043,-0.0361 0.18043,-0.18042 v -3.22364 h 1.81631 l 1.9847,3.13944 c 0.13231,0.19245 0.22854,0.26462 0.48114,0.26462 h 0.76983 c 0.18042,0 0.24057,-0.10825 0.14434,-0.24057 l -2.03282,-3.23567 c 0.73374,-0.0962 1.23894,-0.33679 1.52762,-0.73373 0.30071,-0.39695 0.44506,-1.07054 0.44506,-2.02079 0,-1.25097 -0.19246,-1.96065 -0.80591,-2.39368 -0.5894,-0.43303 -1.35923,-0.54128 -2.80265,-0.54128 z m -0.10825,1.07054 c 1.02242,0 1.69602,0.10825 2.00876,0.33679 0.32477,0.22855 0.48114,0.74577 0.48114,1.55168 0.012,0.97431 -0.1684,1.39531 -0.6736,1.61182 -0.20448,0.0962 -0.6736,0.13232 -1.04648,0.14434 -0.18043,0.012 -0.44505,0.012 -0.76982,0.012 h -1.41937 v -3.65666 z"
       inkscape:connector-curvature="0" /><path
       id="path3656"
       style="font-style:normal;font-variant:normal;font-weight:normal;font-stretch:normal;font-size:12.028512px;font-family:'Univia Pro';-inkscape-font-specification:'Univia Pro';fill:#0060a8;fill-opacity:1;stroke-width:1.00237596"
       d="m 135.57265,195.90499 c -0.12029,0 -0.18043,0.0601 -0.18043,0.18043 v 8.74473 c 0,0.12028 0.0601,0.18042 0.18043,0.18042 h 5.62934 c 0.12028,0 0.18043,-0.0601 0.18043,-0.18042 v -0.70969 c 0,-0.12028 -0.0601,-0.18042 -0.18043,-0.18042 h -4.59489 v -2.81468 h 4.18592 c 0.12028,0 0.18043,-0.0601 0.18043,-0.18042 v -0.69766 c 0,-0.12028 -0.0602,-0.18042 -0.18043,-0.18042 h -4.18592 v -3.09133 h 4.59489 c 0.12028,0 0.18043,-0.0601 0.18043,-0.18043 v -0.70968 c 0,-0.12029 -0.0601,-0.18043 -0.18043,-0.18043 z"
       inkscape:connector-curvature="0" /><path
       id="path3658"
       style="font-style:normal;font-variant:normal;font-weight:normal;font-stretch:normal;font-size:12.028512px;font-family:'Univia Pro';-inkscape-font-specification:'Univia Pro';fill:#0060a8;fill-opacity:1;stroke-width:1.00237596"
       d="m 142.31951,195.90499 c -0.12028,0 -0.18042,0.0601 -0.18042,0.18043 v 0.70968 c 0,0.12029 0.0601,0.18043 0.18042,0.18043 h 2.73048 v 7.85462 c 0,0.12028 0.0601,0.18042 0.18042,0.18042 h 0.85403 c 0.12028,0 0.18043,-0.0601 0.18043,-0.18042 v -7.85462 h 2.73047 c 0.12028,0 0.18043,-0.0601 0.18043,-0.18043 v -0.70968 c 0,-0.12029 -0.0601,-0.18043 -0.18043,-0.18043 z"
       inkscape:connector-curvature="0" /><path
       id="path3660"
       style="font-style:normal;font-variant:normal;font-weight:normal;font-stretch:normal;font-size:12.028512px;font-family:'Univia Pro';-inkscape-font-specification:'Univia Pro';fill:#0060a8;fill-opacity:1;stroke-width:1.00237596"
       d="m 151.63917,195.84485 c -0.56534,0 -0.93823,0.0842 -1.13068,0.24057 -0.18043,0.15637 -0.36086,0.55331 -0.54128,1.16676 l -2.12905,7.56594 c -0.0361,0.15637 0,0.19245 0.14434,0.19245 h 0.93822 c 0.0962,0 0.12029,-0.0361 0.15638,-0.19245 l 0.75779,-2.6583 h 3.62058 l 0.74577,2.6583 c 0.0361,0.15637 0.0601,0.19245 0.15637,0.19245 h 0.93823 c 0.14434,0 0.18042,-0.0361 0.14434,-0.19245 l -2.05688,-7.56594 c -0.1684,-0.62548 -0.34882,-1.01039 -0.54128,-1.16676 -0.18043,-0.15637 -0.5894,-0.24057 -1.20285,-0.24057 z m 0,1.05851 c 0.20448,0 0.32477,0.0361 0.38491,0.10825 0.0601,0.0602 0.13231,0.24057 0.21651,0.52926 l 0.93823,3.56044 h -3.04322 l 0.98634,-3.56044 c 0.14434,-0.57737 0.18043,-0.63751 0.51723,-0.63751 z"
       inkscape:connector-curvature="0" /><path
       id="path3662"
       style="font-style:normal;font-variant:normal;font-weight:normal;font-stretch:normal;font-size:12.028512px;font-family:'Univia Pro';-inkscape-font-specification:'Univia Pro';fill:#0060a8;fill-opacity:1;stroke-width:1.00237596"
       d="m 159.46653,195.84485 c -0.91416,0 -1.76819,0.0241 -2.56207,0.0842 -0.14434,0.012 -0.18043,0.0361 -0.18043,0.18043 v 8.72067 c 0,0.14434 0.0361,0.18042 0.18043,0.18042 h 0.85402 c 0.14435,0 0.18043,-0.0361 0.18043,-0.18042 v -3.22364 h 1.81631 l 1.9847,3.13944 c 0.13231,0.19245 0.22854,0.26462 0.48114,0.26462 h 0.76983 c 0.18042,0 0.24057,-0.10825 0.14434,-0.24057 l -2.03282,-3.23567 c 0.73374,-0.0962 1.23894,-0.33679 1.52762,-0.73373 0.30071,-0.39695 0.44506,-1.07054 0.44506,-2.02079 0,-1.25097 -0.19246,-1.96065 -0.80591,-2.39368 -0.5894,-0.43303 -1.35923,-0.54128 -2.80265,-0.54128 z m -0.10825,1.07054 c 1.02242,0 1.69602,0.10825 2.00876,0.33679 0.32477,0.22855 0.48114,0.74577 0.48114,1.55168 0.012,0.97431 -0.1684,1.39531 -0.6736,1.61182 -0.20448,0.0962 -0.6736,0.13232 -1.04648,0.14434 -0.18043,0.012 -0.44505,0.012 -0.76982,0.012 h -1.41937 v -3.65666 z"
       inkscape:connector-curvature="0" /><path
       id="path3664"
       style="font-style:normal;font-variant:normal;font-weight:normal;font-stretch:normal;font-size:12.028512px;font-family:'Univia Pro';-inkscape-font-specification:'Univia Pro';fill:#0060a8;fill-opacity:1;stroke-width:1.00237596"
       d="m 165.79541,193.47523 c -0.0722,0 -0.12029,0.0241 -0.14434,0.0722 l -0.87808,1.45545 c -0.0361,0.0601 -0.0241,0.12029 0.0361,0.1684 l 0.24057,0.15637 c 0.0601,0.0481 0.10826,0.0481 0.1684,0 l 1.70805,-1.50356 c 0.0361,-0.0361 0.0601,-0.0842 0.0601,-0.14434 v -0.0842 c 0,-0.0842 -0.0361,-0.12029 -0.12028,-0.12029 z m -0.95025,2.42976 c -0.12029,0 -0.18043,0.0601 -0.18043,0.19246 v 8.7327 c 0,0.12028 0.0601,0.18042 0.18043,0.18042 h 0.85402 c 0.12029,0 0.18043,-0.0601 0.18043,-0.18042 v -8.7327 c 0,-0.13232 -0.0601,-0.19246 -0.18043,-0.19246 z"
       inkscape:connector-curvature="0" /><path
       id="path3666"
       style="font-style:normal;font-variant:normal;font-weight:normal;font-stretch:normal;font-size:12.028512px;font-family:'Univia Pro';-inkscape-font-specification:'Univia Pro';fill:#0060a8;fill-opacity:1;stroke-width:1.00237596"
       d="m 170.92708,195.84485 c -0.56535,0 -0.93823,0.0842 -1.13069,0.24057 -0.18042,0.15637 -0.36085,0.55331 -0.54128,1.16676 l -2.12904,7.56594 c -0.0361,0.15637 0,0.19245 0.14434,0.19245 h 0.93822 c 0.0962,0 0.12029,-0.0361 0.15637,-0.19245 l 0.7578,-2.6583 h 3.62058 l 0.74577,2.6583 c 0.0361,0.15637 0.0601,0.19245 0.15637,0.19245 h 0.93822 c 0.14434,0 0.18043,-0.0361 0.14434,-0.19245 l -2.05687,-7.56594 c -0.1684,-0.62548 -0.34883,-1.01039 -0.54128,-1.16676 -0.18043,-0.15637 -0.5894,-0.24057 -1.20285,-0.24057 z m 0,1.05851 c 0.20448,0 0.32476,0.0361 0.38491,0.10825 0.0601,0.0602 0.13231,0.24057 0.21651,0.52926 l 0.93822,3.56044 h -3.04321 l 0.98634,-3.56044 c 0.14434,-0.57737 0.18043,-0.63751 0.51723,-0.63751 z"
       inkscape:connector-curvature="0" /><path
       id="path3668"
       style="font-style:normal;font-variant:normal;font-weight:normal;font-stretch:normal;font-size:12.028512px;font-family:'Univia Pro';-inkscape-font-specification:'Univia Pro';fill:#0060a8;fill-opacity:1;stroke-width:1.00237596"
       d="m 181.63809,195.84485 c -1.40734,0 -2.51396,0.0241 -3.30784,0.0842 -0.14434,0.012 -0.18043,0.0361 -0.18043,0.18043 v 8.70864 c 0,0.13231 0.0361,0.15637 0.18043,0.1684 0.79388,0.0601 1.9005,0.0842 3.30784,0.0842 1.34719,0 2.30947,-0.36086 2.87481,-1.07054 0.57737,-0.72171 0.86606,-1.90051 0.86606,-3.54841 0,-1.63588 -0.28869,-2.81467 -0.86606,-3.52436 -0.56534,-0.72171 -1.52762,-1.08256 -2.87481,-1.08256 z m -0.1684,1.07054 c 0.97431,0 1.65993,0.27665 2.0689,0.82996 0.40897,0.55331 0.61346,1.45545 0.61346,2.70642 0,1.26299 -0.19246,2.17716 -0.57737,2.73047 -0.37288,0.54128 -1.02242,0.81794 -1.93659,0.81794 h -2.27339 v -7.08479 z"
       inkscape:connector-curvature="0" /><path
       id="path3670"
       style="font-style:normal;font-variant:normal;font-weight:normal;font-stretch:normal;font-size:12.028512px;font-family:'Univia Pro';-inkscape-font-specification:'Univia Pro';fill:#0060a8;fill-opacity:1;stroke-width:1.00237596"
       d="m 187.18718,195.90499 c -0.12028,0 -0.18043,0.0601 -0.18043,0.18043 v 8.74473 c 0,0.12028 0.0601,0.18042 0.18043,0.18042 h 5.62935 c 0.12028,0 0.18042,-0.0601 0.18042,-0.18042 v -0.70969 c 0,-0.12028 -0.0601,-0.18042 -0.18042,-0.18042 h -4.5949 v -2.81468 h 4.18593 c 0.12028,0 0.18042,-0.0601 0.18042,-0.18042 v -0.69766 c 0,-0.12028 -0.0601,-0.18042 -0.18042,-0.18042 h -4.18593 v -3.09133 h 4.5949 c 0.12028,0 0.18042,-0.0601 0.18042,-0.18043 v -0.70968 c 0,-0.12029 -0.0601,-0.18043 -0.18042,-0.18043 z"
       inkscape:connector-curvature="0" /><path
       id="path3672"
       style="font-style:normal;font-variant:normal;font-weight:normal;font-stretch:normal;font-size:12.028512px;font-family:'Univia Pro';-inkscape-font-specification:'Univia Pro';fill:#0060a8;fill-opacity:1;stroke-width:1.00237596"
       d="m 197.4772,195.90499 c -0.12029,0 -0.18043,0.0601 -0.18043,0.18043 v 8.74473 c 0,0.12028 0.0601,0.18042 0.18043,0.18042 h 5.4008 c 0.12029,0 0.18043,-0.0601 0.18043,-0.18042 v -0.70969 c 0,-0.12028 -0.0601,-0.18042 -0.18043,-0.18042 h -4.36635 v -7.85462 c 0,-0.12029 -0.0601,-0.18043 -0.18043,-0.18043 z"
       inkscape:connector-curvature="0" /><path
       id="path3674"
       style="font-style:normal;font-variant:normal;font-weight:normal;font-stretch:normal;font-size:12.028512px;font-family:'Univia Pro';-inkscape-font-specification:'Univia Pro';fill:#0060a8;fill-opacity:1;stroke-width:1.00237596"
       d="m 207.29453,195.84485 c -0.56534,0 -0.93822,0.0842 -1.13068,0.24057 -0.18043,0.15637 -0.36086,0.55331 -0.54128,1.16676 l -2.12905,7.56594 c -0.0361,0.15637 0,0.19245 0.14434,0.19245 h 0.93823 c 0.0962,0 0.12028,-0.0361 0.15637,-0.19245 l 0.75779,-2.6583 h 3.62058 l 0.74577,2.6583 c 0.0361,0.15637 0.0602,0.19245 0.15637,0.19245 h 0.93823 c 0.14434,0 0.18042,-0.0361 0.14434,-0.19245 l -2.05688,-7.56594 c -0.1684,-0.62548 -0.34882,-1.01039 -0.54128,-1.16676 -0.18043,-0.15637 -0.5894,-0.24057 -1.20285,-0.24057 z m 0,1.05851 c 0.20448,0 0.32477,0.0361 0.38491,0.10825 0.0601,0.0602 0.13232,0.24057 0.21652,0.52926 l 0.93822,3.56044 h -3.04321 l 0.98633,-3.56044 c 0.14435,-0.57737 0.18043,-0.63751 0.51723,-0.63751 z"
       inkscape:connector-curvature="0" /><path
       id="path3676"
       style="font-style:normal;font-variant:normal;font-weight:normal;font-stretch:normal;font-size:12.028512px;font-family:'Univia Pro';-inkscape-font-specification:'Univia Pro';fill:#0060a8;fill-opacity:1;stroke-width:1.00237596"
       d="m 217.87323,195.84485 c -1.49154,0 -2.35759,0.22854 -2.92293,0.98634 -0.56534,0.73374 -0.73374,1.79224 -0.73374,3.63261 0,1.84036 0.1684,2.89887 0.73374,3.63261 0.56534,0.73374 1.41937,0.97431 2.92293,0.97431 0.97431,0 1.72008,-0.0361 2.2373,-0.10826 0.13232,-0.0241 0.19246,-0.0962 0.19246,-0.21651 v -0.56534 c 0,-0.12029 -0.0601,-0.18043 -0.18043,-0.18043 h -2.24933 c -1.02242,0 -1.68399,-0.24057 -1.9847,-0.70968 -0.30072,-0.46911 -0.45709,-1.41937 -0.45709,-2.8267 0,-1.41937 0.15637,-2.36962 0.45709,-2.83873 0.30071,-0.46911 0.96228,-0.70968 1.9847,-0.70968 h 2.24933 c 0.12029,0 0.18043,-0.0601 0.18043,-0.18043 v -0.56534 c 0,-0.12029 -0.0601,-0.19246 -0.19246,-0.20449 -0.56534,-0.0842 -1.3111,-0.12028 -2.2373,-0.12028 z"
       inkscape:connector-curvature="0" /><path
       id="path3678"
       style="font-style:normal;font-variant:normal;font-weight:normal;font-stretch:normal;font-size:12.028512px;font-family:'Univia Pro';-inkscape-font-specification:'Univia Pro';fill:#0060a8;fill-opacity:1;stroke-width:1.00237596"
       d="m 227.78003,195.90499 c -0.12029,0 -0.18043,0.0601 -0.18043,0.18043 v 4.39041 c 0,1.40733 -0.15637,2.35758 -0.48114,2.8267 -0.31274,0.46911 -0.93823,0.69765 -1.88848,0.69765 -1.28705,0 -1.87645,-0.36086 -2.1531,-1.33517 -0.13232,-0.49316 -0.20449,-1.21488 -0.20449,-2.18918 v -4.39041 c 0,-0.12029 -0.0601,-0.18043 -0.18042,-0.18043 h -0.85403 c -0.12028,0 -0.18043,0.0601 -0.18043,0.18043 v 4.39041 c 0,1.52762 0.13232,2.46584 0.421,3.19958 0.15637,0.37288 0.37289,0.64954 0.66157,0.842 0.57737,0.38491 1.29908,0.55331 2.4899,0.55331 1.47951,0 2.29745,-0.20449 2.86279,-0.9262 0.56534,-0.72171 0.72171,-1.78022 0.72171,-3.66869 v -4.39041 c 0,-0.12029 -0.0601,-0.18043 -0.18043,-0.18043 z"
       inkscape:connector-curvature="0" /><path
       id="path3680"
       style="font-style:normal;font-variant:normal;font-weight:normal;font-stretch:normal;font-size:12.028512px;font-family:'Univia Pro';-inkscape-font-specification:'Univia Pro';fill:#0060a8;fill-opacity:1;stroke-width:1.00237596"
       d="m 230.88451,195.90499 c -0.12029,0 -0.18043,0.0601 -0.18043,0.18043 v 8.74473 c 0,0.12028 0.0601,0.18042 0.18043,0.18042 h 5.4008 c 0.12029,0 0.18043,-0.0601 0.18043,-0.18042 v -0.70969 c 0,-0.12028 -0.0601,-0.18042 -0.18043,-0.18042 h -4.36635 v -7.85462 c 0,-0.12029 -0.0601,-0.18043 -0.18043,-0.18043 z"
       inkscape:connector-curvature="0" /><path
       id="path3682"
       style="font-style:normal;font-variant:normal;font-weight:normal;font-stretch:normal;font-size:12.028512px;font-family:'Univia Pro';-inkscape-font-specification:'Univia Pro';fill:#0060a8;fill-opacity:1;stroke-width:1.00237596"
       d="m 233.94294,195.90499 c -0.12028,0 -0.18042,0.0601 -0.18042,0.18043 v 0.70968 c 0,0.12029 0.0601,0.18043 0.18042,0.18043 h 2.73048 v 7.85462 c 0,0.12028 0.0601,0.18042 0.18042,0.18042 h 0.85403 c 0.12028,0 0.18042,-0.0601 0.18042,-0.18042 v -7.85462 h 2.73048 c 0.12028,0 0.18042,-0.0601 0.18042,-0.18043 v -0.70968 c 0,-0.12029 -0.0601,-0.18043 -0.18042,-0.18043 z"
       inkscape:connector-curvature="0" /><path
       id="path3684"
       style="font-style:normal;font-variant:normal;font-weight:normal;font-stretch:normal;font-size:12.028512px;font-family:'Univia Pro';-inkscape-font-specification:'Univia Pro';fill:#0060a8;fill-opacity:1;stroke-width:1.00237596"
       d="m 248.00766,195.90499 c -0.12029,0 -0.18043,0.0601 -0.18043,0.18043 v 4.39041 c 0,1.40733 -0.15637,2.35758 -0.48114,2.8267 -0.31274,0.46911 -0.93822,0.69765 -1.88848,0.69765 -1.28705,0 -1.87645,-0.36086 -2.1531,-1.33517 -0.13231,-0.49316 -0.20449,-1.21488 -0.20449,-2.18918 v -4.39041 c 0,-0.12029 -0.0601,-0.18043 -0.18042,-0.18043 h -0.85403 c -0.12028,0 -0.18043,0.0601 -0.18043,0.18043 v 4.39041 c 0,1.52762 0.13232,2.46584 0.421,3.19958 0.15637,0.37288 0.37289,0.64954 0.66157,0.842 0.57737,0.38491 1.29908,0.55331 2.4899,0.55331 1.47951,0 2.29745,-0.20449 2.86279,-0.9262 0.56534,-0.72171 0.72171,-1.78022 0.72171,-3.66869 v -4.39041 c 0,-0.12029 -0.0601,-0.18043 -0.18043,-0.18043 z"
       inkscape:connector-curvature="0" /><path
       id="path3686"
       style="font-style:normal;font-variant:normal;font-weight:normal;font-stretch:normal;font-size:12.028512px;font-family:'Univia Pro';-inkscape-font-specification:'Univia Pro';fill:#0060a8;fill-opacity:1;stroke-width:1.00237596"
       d="m 253.67421,195.84485 c -0.91416,0 -1.76819,0.0241 -2.56207,0.0842 -0.14434,0.012 -0.18043,0.0361 -0.18043,0.18043 v 8.72067 c 0,0.14434 0.0361,0.18042 0.18043,0.18042 h 0.85402 c 0.14435,0 0.18043,-0.0361 0.18043,-0.18042 v -3.22364 h 1.81631 l 1.9847,3.13944 c 0.13231,0.19245 0.22854,0.26462 0.48114,0.26462 h 0.76983 c 0.18042,0 0.24057,-0.10825 0.14434,-0.24057 l -2.03282,-3.23567 c 0.73374,-0.0962 1.23894,-0.33679 1.52762,-0.73373 0.30071,-0.39695 0.44506,-1.07054 0.44506,-2.02079 0,-1.25097 -0.19246,-1.96065 -0.80591,-2.39368 -0.5894,-0.43303 -1.35923,-0.54128 -2.80265,-0.54128 z m -0.10825,1.07054 c 1.02242,0 1.69602,0.10825 2.00876,0.33679 0.32477,0.22855 0.48114,0.74577 0.48114,1.55168 0.012,0.97431 -0.1684,1.39531 -0.6736,1.61182 -0.20448,0.0962 -0.6736,0.13232 -1.04648,0.14434 -0.18043,0.012 -0.44505,0.012 -0.76982,0.012 h -1.41937 v -3.65666 z"
       inkscape:connector-curvature="0" /><path
       id="path3688"
       style="font-style:normal;font-variant:normal;font-weight:normal;font-stretch:normal;font-size:12.028512px;font-family:'Univia Pro';-inkscape-font-specification:'Univia Pro';fill:#0060a8;fill-opacity:1;stroke-width:1.00237596"
       d="m 261.93969,195.84485 c -0.56534,0 -0.93823,0.0842 -1.13068,0.24057 -0.18043,0.15637 -0.36086,0.55331 -0.54129,1.16676 l -2.12904,7.56594 c -0.0361,0.15637 0,0.19245 0.14434,0.19245 h 0.93822 c 0.0962,0 0.12029,-0.0361 0.15637,-0.19245 l 0.7578,-2.6583 h 3.62058 l 0.74577,2.6583 c 0.0361,0.15637 0.0601,0.19245 0.15637,0.19245 h 0.93822 c 0.14435,0 0.18043,-0.0361 0.14435,-0.19245 l -2.05688,-7.56594 c -0.1684,-0.62548 -0.34883,-1.01039 -0.54128,-1.16676 -0.18043,-0.15637 -0.5894,-0.24057 -1.20285,-0.24057 z m 0,1.05851 c 0.20448,0 0.32477,0.0361 0.38491,0.10825 0.0601,0.0602 0.13231,0.24057 0.21651,0.52926 l 0.93823,3.56044 h -3.04322 l 0.98634,-3.56044 c 0.14434,-0.57737 0.18043,-0.63751 0.51723,-0.63751 z"
       inkscape:connector-curvature="0" /><path
       id="path3690"
       style="font-style:normal;font-variant:normal;font-weight:normal;font-stretch:normal;font-size:12.028512px;font-family:'Univia Pro';-inkscape-font-specification:'Univia Pro';fill:#0060a8;fill-opacity:1;stroke-width:1.00237596"
       d="m 111.21265,211.54206 c -0.15637,0 -0.26462,0.0601 -0.32477,0.19245 l -2.4899,4.82344 -2.47787,-4.82344 c -0.0842,-0.13231 -0.19246,-0.19245 -0.32477,-0.19245 h -0.93822 c -0.18043,0 -0.22855,0.0842 -0.13232,0.26462 l 3.25973,6.0744 v 2.58613 c 0,0.12029 0.0601,0.18043 0.18043,0.18043 h 0.86605 c 0.12028,0 0.18043,-0.0601 0.18043,-0.18043 v -2.58613 l 3.25972,-6.0744 c 0.0962,-0.18042 0.0481,-0.26462 -0.13231,-0.26462 z"
       inkscape:connector-curvature="0" /><path
       id="path3692"
       style="font-style:normal;font-variant:normal;font-weight:normal;font-stretch:normal;font-size:12.028512px;font-family:'Univia Pro';-inkscape-font-specification:'Univia Pro';fill:#0060a8;fill-opacity:1;stroke-width:1.00237596"
       d="m 115.53296,211.54206 c -0.12029,0 -0.18043,0.0601 -0.18043,0.18042 v 8.74473 c 0,0.12029 0.0601,0.18043 0.18043,0.18043 h 5.4008 c 0.12028,0 0.18043,-0.0601 0.18043,-0.18043 v -0.70968 c 0,-0.12029 -0.0601,-0.18043 -0.18043,-0.18043 h -4.36635 v -7.85462 c 0,-0.12028 -0.0601,-0.18042 -0.18043,-0.18042 z"
       inkscape:connector-curvature="0" /><path
       id="path3694"
       style="font-style:normal;font-variant:normal;font-weight:normal;font-stretch:normal;font-size:12.028512px;font-family:'Univia Pro';-inkscape-font-specification:'Univia Pro';fill:#0060a8;fill-opacity:1;stroke-width:1.00237596"
       d="m 125.35029,211.48191 c -0.56534,0 -0.93822,0.0842 -1.13068,0.24057 -0.18043,0.15637 -0.36085,0.55332 -0.54128,1.16677 l -2.12905,7.56593 c -0.0361,0.15637 0,0.19246 0.14434,0.19246 h 0.93823 c 0.0962,0 0.12028,-0.0361 0.15637,-0.19246 l 0.75779,-2.6583 h 3.62059 l 0.74576,2.6583 c 0.0361,0.15637 0.0601,0.19246 0.15637,0.19246 h 0.93823 c 0.14434,0 0.18043,-0.0361 0.14434,-0.19246 l -2.05687,-7.56593 c -0.1684,-0.62548 -0.34883,-1.0104 -0.54129,-1.16677 -0.18043,-0.15637 -0.58939,-0.24057 -1.20285,-0.24057 z m 0,1.05851 c 0.20449,0 0.32477,0.0361 0.38491,0.10826 0.0601,0.0601 0.13232,0.24057 0.21652,0.52925 l 0.93822,3.56044 h -3.04321 l 0.98633,-3.56044 c 0.14435,-0.57736 0.18043,-0.63751 0.51723,-0.63751 z"
       inkscape:connector-curvature="0" /><path
       id="path3696"
       style="font-style:normal;font-variant:normal;font-weight:normal;font-stretch:normal;font-size:12.028512px;font-family:'Univia Pro';-inkscape-font-specification:'Univia Pro';fill:#0060a8;fill-opacity:1;stroke-width:1.00237596"
       d="m 133.26186,211.48191 c -0.76983,0 -1.27503,0.0361 -1.85239,0.21652 -0.27666,0.0842 -0.51723,0.19245 -0.69766,0.34882 -0.34882,0.28869 -0.60142,0.80591 -0.60142,1.5156 v 0.28868 c 0,1.02242 0.26462,1.70805 1.13068,2.04485 l 2.85075,1.15473 c 0.70969,0.28869 0.91417,0.63752 0.91417,1.29908 v 0.22855 c 0,0.75779 -0.49317,1.0585 -1.56371,1.0585 h -3.29581 c -0.10825,0 -0.1684,0.0602 -0.1684,0.1684 v 0.54129 c 0,0.10825 0.0481,0.1684 0.14434,0.19245 0.95026,0.10826 1.92457,0.1684 2.93496,0.1684 0.7578,0 1.27502,-0.0481 1.85239,-0.20448 0.28869,-0.0842 0.51723,-0.20449 0.69766,-0.36086 0.37288,-0.30071 0.62548,-0.81794 0.62548,-1.52762 v -0.38491 c 0,-1.02242 -0.3368,-1.65994 -1.38328,-2.09296 l -2.62222,-1.08257 c -0.70968,-0.28868 -0.90213,-0.60142 -0.90213,-1.22691 v -0.20448 c 0,-0.70968 0.52925,-1.07054 1.57573,-1.07054 h 2.70642 c 0.10825,0 0.15637,-0.0601 0.15637,-0.18043 v -0.55331 c 0,-0.0962 -0.0601,-0.14434 -0.1684,-0.15637 -0.97431,-0.12028 -1.74414,-0.18043 -2.33353,-0.18043 z"
       inkscape:connector-curvature="0" /><path
       id="path3698"
       style="font-style:normal;font-variant:normal;font-weight:normal;font-stretch:normal;font-size:12.028512px;font-family:'Univia Pro';-inkscape-font-specification:'Univia Pro';fill:#0060a8;fill-opacity:1;stroke-width:1.00237596"
       d="m 142.8997,211.48191 c -0.56534,0 -0.93822,0.0842 -1.13068,0.24057 -0.18043,0.15637 -0.36085,0.55332 -0.54128,1.16677 l -2.12905,7.56593 c -0.0361,0.15637 0,0.19246 0.14434,0.19246 h 0.93823 c 0.0962,0 0.12028,-0.0361 0.15637,-0.19246 l 0.75779,-2.6583 h 3.62059 l 0.74576,2.6583 c 0.0361,0.15637 0.0601,0.19246 0.15637,0.19246 h 0.93823 c 0.14434,0 0.18043,-0.0361 0.14434,-0.19246 l -2.05687,-7.56593 c -0.1684,-0.62548 -0.34883,-1.0104 -0.54129,-1.16677 -0.18043,-0.15637 -0.5894,-0.24057 -1.20285,-0.24057 z m 0,1.05851 c 0.20449,0 0.32477,0.0361 0.38491,0.10826 0.0602,0.0601 0.13232,0.24057 0.21652,0.52925 l 0.93822,3.56044 h -3.04321 l 0.98633,-3.56044 c 0.14435,-0.57736 0.18043,-0.63751 0.51723,-0.63751 z"
       inkscape:connector-curvature="0" /><path
       id="path3700"
       style="font-style:normal;font-variant:normal;font-weight:normal;font-stretch:normal;font-size:12.028512px;font-family:'Univia Pro';-inkscape-font-specification:'Univia Pro';fill:#0060a8;fill-opacity:1;stroke-width:1.00237596"
       d="m 150.72707,211.48191 c -0.91417,0 -1.76819,0.0241 -2.56207,0.0842 -0.14435,0.012 -0.18043,0.0361 -0.18043,0.18043 v 8.72067 c 0,0.14434 0.0361,0.18043 0.18043,0.18043 h 0.85402 c 0.14434,0 0.18043,-0.0361 0.18043,-0.18043 v -3.22364 h 1.8163 l 1.98471,3.13944 c 0.13231,0.19246 0.22854,0.26463 0.48114,0.26463 h 0.76982 c 0.18043,0 0.24057,-0.10826 0.14434,-0.24057 l -2.03281,-3.23567 c 0.73374,-0.0962 1.23893,-0.3368 1.52762,-0.73374 0.30071,-0.39694 0.44505,-1.07054 0.44505,-2.02079 0,-1.25096 -0.19245,-1.96065 -0.80591,-2.39367 -0.5894,-0.43303 -1.35922,-0.54129 -2.80264,-0.54129 z m -0.10826,1.07054 c 1.02243,0 1.69602,0.10826 2.00876,0.3368 0.32477,0.22854 0.48114,0.74577 0.48114,1.55168 0.012,0.97431 -0.1684,1.39531 -0.67359,1.61182 -0.20449,0.0962 -0.6736,0.13231 -1.04648,0.14434 -0.18043,0.012 -0.44506,0.012 -0.76983,0.012 h -1.41936 v -3.65667 z"
       inkscape:connector-curvature="0" /><path
       id="path3702"
       style="font-style:normal;font-variant:normal;font-weight:normal;font-stretch:normal;font-size:12.028512px;font-family:'Univia Pro';-inkscape-font-specification:'Univia Pro';fill:#0060a8;fill-opacity:1;stroke-width:1.00237596"
       d="m 154.98234,211.54206 c -0.12028,0 -0.18043,0.0601 -0.18043,0.18042 v 0.70969 c 0,0.12028 0.0602,0.18042 0.18043,0.18042 h 2.73047 v 7.85462 c 0,0.12029 0.0602,0.18043 0.18043,0.18043 h 0.85403 c 0.12028,0 0.18042,-0.0601 0.18042,-0.18043 v -7.85462 h 2.73048 c 0.12028,0 0.18042,-0.0601 0.18042,-0.18042 v -0.70969 c 0,-0.12028 -0.0601,-0.18042 -0.18042,-0.18042 z"
       inkscape:connector-curvature="0" /><path
       id="path3704"
       style="font-style:normal;font-variant:normal;font-weight:normal;font-stretch:normal;font-size:12.028512px;font-family:'Univia Pro';-inkscape-font-specification:'Univia Pro';fill:#0060a8;fill-opacity:1;stroke-width:1.00237596"
       d="m 163.17714,211.54206 c -0.12028,0 -0.18043,0.0601 -0.18043,0.18042 v 8.74473 c 0,0.12029 0.0601,0.18043 0.18043,0.18043 h 5.62935 c 0.12028,0 0.18042,-0.0601 0.18042,-0.18043 v -0.70968 c 0,-0.12029 -0.0601,-0.18043 -0.18042,-0.18043 h -4.5949 v -2.81467 h 4.18593 c 0.12028,0 0.18042,-0.0601 0.18042,-0.18043 v -0.69765 c 0,-0.12029 -0.0601,-0.18043 -0.18042,-0.18043 h -4.18593 v -3.09133 h 4.5949 c 0.12028,0 0.18042,-0.0601 0.18042,-0.18042 v -0.70969 c 0,-0.12028 -0.0601,-0.18042 -0.18042,-0.18042 z"
       inkscape:connector-curvature="0" /><path
       id="path3706"
       style="font-style:normal;font-variant:normal;font-weight:normal;font-stretch:normal;font-size:12.028512px;font-family:'Univia Pro';-inkscape-font-specification:'Univia Pro';fill:#0060a8;fill-opacity:1;stroke-width:1.00237596"
       d="m 173.38822,211.48191 c -0.76983,0 -1.27502,0.0361 -1.85239,0.21652 -0.27666,0.0842 -0.51723,0.19245 -0.69766,0.34882 -0.34882,0.28869 -0.60142,0.80591 -0.60142,1.5156 v 0.28868 c 0,1.02242 0.26463,1.70805 1.13068,2.04485 l 2.85076,1.15473 c 0.70968,0.28869 0.91416,0.63752 0.91416,1.29908 v 0.22855 c 0,0.75779 -0.49317,1.0585 -1.5637,1.0585 h -3.29582 c -0.10825,0 -0.1684,0.0602 -0.1684,0.1684 v 0.54129 c 0,0.10825 0.0481,0.1684 0.14435,0.19245 0.95025,0.10826 1.92456,0.1684 2.93495,0.1684 0.7578,0 1.27503,-0.0481 1.85239,-0.20448 0.28869,-0.0842 0.51723,-0.20449 0.69766,-0.36086 0.37288,-0.30071 0.62548,-0.81794 0.62548,-1.52762 v -0.38491 c 0,-1.02242 -0.3368,-1.65994 -1.38328,-2.09296 l -2.62221,-1.08257 c -0.70969,-0.28868 -0.90214,-0.60142 -0.90214,-1.22691 v -0.20448 c 0,-0.70968 0.52925,-1.07054 1.57573,-1.07054 h 2.70642 c 0.10825,0 0.15637,-0.0601 0.15637,-0.18043 v -0.55331 c 0,-0.0962 -0.0601,-0.14434 -0.1684,-0.15637 -0.97431,-0.12028 -1.74413,-0.18043 -2.33353,-0.18043 z"
       inkscape:connector-curvature="0" /></g></g>





<style
   id="style886"
   type="text/css">
	.st0{fill:#76BC21;}
	.st1{fill:#FFCD00;}
	.st2{fill:#DD8797;}
	.st3{fill:#00ADE7;}
	.st4{fill:#0075C9;}
	.st5{fill:#8F4899;}
	.st6{fill:#FF8300;}
	.st7{fill:#007565;}
	.st8{fill:#00A887;}
	.st9{fill:#002169;}
	.st10{fill:#005CB9;}
	.st11{fill:#73308A;}
	.st12{fill:#B4008D;}
	.st13{fill:#FF595A;}
</style><g
   id="g1000"
   transform="matrix(1.45674,0,0,1.45674,-0.4667,4.633563)">
	<g
   id="g920">
		<path
   id="path888"
   d="m 5.3,25.2 h 5.1 c 0.5,0 1,0 1.5,-0.1 0.3,0 0.5,-0.3 0.6,-0.6 2,-9.2 10.1,-16.1 19.9,-16.1 h 1.1 C 33.7,7.3 33.8,6.2 33.8,5 V 1.4 H 32.4 C 18.5,1.4 7,11.8 5.3,25.2 Z"
   class="st0"
   inkscape:connector-curvature="0"
   style="fill:#76bc21" />
		<path
   id="path890"
   d="M 28.2,71.1 C 19,69.1 12.1,61 12.1,51.2 V 50.1 C 11,49.9 9.9,49.8 8.7,49.8 H 5 v 1.4 c 0,13.9 10.4,25.4 23.8,27.2 v -5.1 c 0,-0.5 0,-1 -0.1,-1.5 0,-0.4 -0.2,-0.6 -0.5,-0.7 z"
   class="st1"
   inkscape:connector-curvature="0"
   style="fill:#ffcd00" />
		<path
   id="path892"
   d="m 75.3,54.9 c -0.3,0 -0.5,0.3 -0.6,0.6 -2,9.2 -10.1,16.1 -19.9,16.1 h -1.1 c -0.2,1.1 -0.3,2.2 -0.3,3.4 0,0 0,0 0,0 v 3.7 h 1.4 C 68.7,78.7 80.2,68.3 82,54.9 h -5.1 c -0.5,-0.1 -1.1,-0.1 -1.6,0 z"
   class="st2"
   inkscape:connector-curvature="0"
   style="fill:#dd8797" />
		<path
   id="path894"
   d="m 58.4,1.6 v 5.1 c 0,0.5 0,1 0.1,1.5 0,0.3 0.3,0.5 0.6,0.6 9.2,2 16.1,10.1 16.1,19.9 v 1.1 c 1.1,0.2 2.2,0.3 3.4,0.3 h 3.7 V 28.7 C 82.3,14.9 71.9,3.4 58.4,1.6 Z"
   class="st3"
   inkscape:connector-curvature="0"
   style="fill:#00ade7" />
		<polygon
   id="polygon896"
   points="33.8,78.6 33.8,74.9 "
   class="st4"
   style="fill:#0075c9" />
		<polygon
   id="polygon898"
   points="53.5,78.6 53.5,74.9 "
   class="st5"
   style="fill:#8f4899" />
		<polygon
   id="polygon900"
   points="53.5,1.4 53.5,5.1 "
   class="st4"
   style="fill:#0075c9" />
		<polygon
   id="polygon902"
   points="33.8,1.4 33.8,5.1 "
   class="st5"
   style="fill:#8f4899" />
		<path
   id="path904"
   d="m 36.6,60.5 c -0.9,-1.4 -2,-2.6 -3.2,-3.8 L 26.9,50.2 C 25.8,49 24.5,48 23.1,47 18.9,44.1 13.9,42.6 8.7,42.6 H 5 v 7.2 h 3.7 c 5,0 9.6,1.9 13.2,5.5 l 6.5,6.5 c 3.5,3.5 5.5,8.2 5.5,13.2 v 3.7 H 41 V 75 C 41,69.7 39.5,64.8 36.6,60.5 Z"
   class="st6"
   inkscape:connector-curvature="0"
   style="fill:#ff8300" />
		<path
   id="path906"
   d="m 39.3,24.8 c -0.6,0.8 -1.3,1.5 -2.1,2.3 l -6.5,6.5 c -0.7,0.7 -1.5,1.4 -2.3,2.1 -2.2,1.8 -4.6,3.3 -7.1,4.4 -3.9,1.7 -8.2,2.6 -12.6,2.6 v 0 c 5.2,0 10.2,1.5 14.4,4.4 1.8,-0.7 3.6,-1.6 5.3,-2.6 2.1,-1.3 4.1,-2.7 5.9,-4.4 0.5,-0.4 1,-0.9 1.4,-1.4 l 6.5,-6.5 c 0.5,-0.5 0.9,-1 1.4,-1.4 -1.6,-2 -3.1,-3.9 -4.3,-6 z"
   class="st7"
   inkscape:connector-curvature="0"
   style="fill:#007565" />
		<path
   id="path908"
   d="m 33.8,1.4 v 3.7 c 0,5 -1.9,9.6 -5.5,13.2 l -6.5,6.5 c -3.5,3.5 -8.2,5.5 -13.2,5.5 H 5 v 7.2 h 3.7 c 5.2,0 10.2,-1.5 14.4,-4.4 1.4,-0.9 2.6,-2 3.8,-3.2 l 6.5,-6.5 c 1.2,-1.2 2.2,-2.5 3.2,-3.8 C 39.5,15.4 41,10.4 41,5.2 V 1.4 Z"
   class="st8"
   inkscape:connector-curvature="0"
   style="fill:#00a887" />
		<path
   id="path910"
   d="M 56.6,33.5 50.1,27 C 49.4,26.3 48.7,25.5 48,24.7 46.2,22.5 44.7,20.1 43.6,17.6 41.9,13.7 41,9.5 41,5.1 v 0 c 0,5.2 -1.5,10.2 -4.4,14.4 v 0 c 0.7,1.8 1.6,3.6 2.6,5.3 1.3,2.1 2.7,4.1 4.4,5.9 0.4,0.5 0.9,1 1.4,1.4 l 6.5,6.5 c 0.5,0.5 1,0.9 1.4,1.4 1.8,-1.7 3.8,-3.1 5.9,-4.4 -0.7,-0.6 -1.5,-1.3 -2.2,-2.1 z"
   class="st9"
   inkscape:connector-curvature="0"
   style="fill:#002169" />
		<path
   id="path912"
   d="m 78.6,30.2 c -5,0 -9.6,-1.9 -13.2,-5.5 L 58.9,18.2 C 55.4,14.7 53.4,10 53.4,5 V 1.4 h -7.2 v 3.7 c 0,5.2 1.5,10.2 4.4,14.4 0.9,1.4 2,2.6 3.2,3.8 l 6.5,6.5 c 1.2,1.2 2.5,2.2 3.8,3.2 4.2,2.9 9.2,4.4 14.4,4.4 h 3.7 v -7.2 0 0 z"
   class="st10"
   inkscape:connector-curvature="0"
   style="fill:#005cb9" />
		<path
   id="path914"
   d="m 78.6,37.4 c -5.2,0 -10.2,-1.5 -14.4,-4.4 -1.8,0.7 -3.6,1.6 -5.3,2.6 -2.1,1.3 -4.1,2.7 -5.9,4.4 -0.5,0.4 -1,0.9 -1.4,1.4 L 45,47.9 c -0.5,0.5 -0.9,1 -1.4,1.4 1.7,1.8 3.1,3.8 4.4,5.9 0.6,-0.8 1.3,-1.5 2.1,-2.3 l 6.5,-6.5 c 0.7,-0.7 1.5,-1.4 2.3,-2.1 2.2,-1.8 4.6,-3.3 7.1,-4.4 3.9,-1.6 8.2,-2.5 12.6,-2.5 z"
   class="st11"
   inkscape:connector-curvature="0"
   style="fill:#73308a" />
		<path
   id="path916"
   d="m 78.6,42.6 c -5.2,0 -10.2,1.5 -14.4,4.4 -1.4,0.9 -2.6,2 -3.8,3.2 l -6.5,6.5 c -1.2,1.2 -2.2,2.5 -3.2,3.8 v 0 c -2.9,4.2 -4.4,9.2 -4.4,14.4 v 3.7 h 7.2 v -3.7 c 0,0 0,0 0,0 0,-5 1.9,-9.6 5.5,-13.2 l 6.5,-6.5 c 3.5,-3.5 8.2,-5.5 13.2,-5.5 h 3.7 v -7.2 h -3.8 z"
   class="st12"
   inkscape:connector-curvature="0"
   style="fill:#b4008d" />
		<path
   id="path918"
   d="m 48,55.2 c -1.3,-2.1 -2.7,-4.1 -4.4,-5.9 -0.4,-0.5 -0.9,-1 -1.4,-1.4 l -6.5,-6.5 c -0.5,-0.5 -1,-0.9 -1.4,-1.4 -1.8,1.7 -3.8,3.1 -5.9,4.4 0.8,0.6 1.5,1.3 2.3,2.1 l 6.5,6.5 c 0.7,0.7 1.4,1.5 2.1,2.3 1.8,2.2 3.3,4.6 4.4,7.1 1.7,3.9 2.6,8.2 2.6,12.6 0,-5.2 1.5,-10.2 4.4,-14.4 v 0 C 49.9,58.7 49.1,56.9 48,55.2 Z"
   class="st13"
   inkscape:connector-curvature="0"
   style="fill:#ff595a" />
	</g>
	<path
   id="path922"
   d="m 225.2,30.6 c 0.7,0 1.3,-0.4 1.5,-1 l 1.2,-3.3 c 0.1,-0.3 0,-0.4 -0.3,-0.4 h -8.1 c -0.7,0 -1.3,0.3 -1.6,1.1 l -1.2,3.2 c -0.1,0.3 0,0.4 0.3,0.4 z M 122.9,26.4 h -5.8 c -1.1,0 -1.8,0.4 -2.3,1.4 l -4.7,10.1 -4.7,-10 c -0.5,-1 -1.3,-1.4 -2.3,-1.4 h -5.5 c -0.6,0 -0.8,0.3 -0.5,0.9 l 9.1,17.9 v 10 c 0,0.5 0.2,0.7 0.6,0.7 h 6.4 c 0.4,0 0.6,-0.2 0.6,-0.7 v -9.9 l 9.5,-18 c 0.4,-0.7 0.2,-1 -0.4,-1 z m 20.1,7 h -4.7 c -1,0 -1.7,0.7 -1.7,1.7 V 50.2 H 134 c -1.8,0 -2.7,-0.1 -3.3,-0.8 -0.5,-0.9 -0.7,-2.2 -0.6,-5 V 34 c 0,-0.4 -0.2,-0.6 -0.6,-0.6 h -4.6 c -0.9,0 -1.7,0.8 -1.7,1.7 v 11.3 c 0,4.1 0.4,6.3 1.9,7.8 1.5,1.5 3.7,1.9 7.8,1.9 4.2,0 7.6,-0.2 10.1,-0.7 0.5,-0.1 0.6,-0.2 0.6,-0.7 V 34 c 0,-0.4 -0.2,-0.6 -0.6,-0.6 z m 21.6,0.3 c -1.7,-0.3 -3.4,-0.5 -6.2,-0.5 -5.4,0.1 -7.9,0.7 -9.4,3.5 -0.8,1.9 -1.1,4.1 -1.1,7.9 v 0 c 0,3.8 0.3,6.1 1.1,7.9 1.4,2.8 4,3.4 9.4,3.5 2.8,0 4.4,-0.2 6.2,-0.5 0.9,-0.2 1.3,-0.8 1.3,-1.8 v -3 c 0,-0.4 -0.2,-0.6 -0.7,-0.6 h -6.7 c -1.5,0 -2.5,-0.4 -2.9,-1.1 -0.4,-0.7 -0.7,-2.1 -0.7,-4.3 v 0 c 0,0 0,-0.1 0,-0.1 0,0 0,-0.1 0,-0.1 v 0 c 0,-2.2 0.2,-3.6 0.7,-4.3 0.5,-0.7 1.5,-1.1 2.9,-1.1 h 6.7 c 0.5,0 0.7,-0.2 0.7,-0.6 v -3 c 0,-1 -0.4,-1.6 -1.3,-1.8 z m 90.4,1.4 c -1.5,-1.5 -3.7,-1.9 -7.8,-1.9 -4.8,0 -8.2,0.2 -10.2,0.7 -0.4,0.1 -0.6,0.1 -0.6,0.6 v 20.7 c 0,0.4 0.2,0.6 0.6,0.6 h 5.8 c 0.4,0 0.6,-0.2 0.6,-0.6 V 39.1 h 2.7 c 1.9,0 2.6,0 3.3,0.9 0.6,0.9 0.6,2 0.6,5 v 10.3 c 0,0.4 0.2,0.6 0.6,0.6 h 5.7 c 0.4,0 0.6,-0.2 0.6,-0.6 V 42.8 c 0.1,-4.1 -0.3,-6.3 -1.9,-7.7 z m -33.6,-1.9 c -2.6,0 -4.9,0.2 -6.9,0.5 -0.9,0.2 -1.4,0.7 -1.4,1.8 v 3 c 0,0.4 0.2,0.6 0.5,0.6 h 7.8 c 2,0 3,0.8 3,2.3 v 0.8 H 220 c -3.1,0 -5.2,0.4 -6.6,1.3 -1.3,0.9 -2,2.7 -2.1,5.3 0.2,4 1.2,5.8 3.7,6.5 0.9,0.2 1.8,0.4 2.7,0.4 0.9,0.1 2,0.1 3.5,0.1 3.4,0 6.4,-0.3 9.1,-0.8 0.6,-0.2 1,-0.6 1,-1.3 V 40.3 c 0.1,-4.2 -1.2,-7.1 -9.9,-7.1 z m 3,17 c -0.9,0.2 -2,0.3 -3.4,0.3 -2.2,0 -2.8,-0.4 -2.8,-2 0,-1.5 0.6,-2.1 2.5,-2.1 h 3.7 z m -45.2,-17 c -2.6,0 -4.9,0.2 -6.9,0.5 -0.9,0.2 -1.4,0.7 -1.4,1.8 v 3 c 0,0.4 0.2,0.6 0.5,0.6 h 7.8 c 2,0 3,0.8 3,2.3 v 0.8 h -4.4 c -3.1,0 -5.2,0.4 -6.6,1.3 -1.3,0.9 -2,2.7 -2.1,5.3 0.2,4 1.2,5.8 3.7,6.5 0.9,0.2 1.8,0.4 2.7,0.4 0.9,0.1 2,0.1 3.5,0.1 3.4,0 6.4,-0.3 9.1,-0.8 0.6,-0.2 1,-0.6 1,-1.3 V 40.3 c 0.1,-4.2 -1.2,-7.1 -9.9,-7.1 z m 3,17 c -0.9,0.2 -2,0.3 -3.4,0.3 -2.2,0 -2.8,-0.4 -2.8,-2 0,-1.5 0.6,-2.1 2.5,-2.1 h 3.7 z m 24.7,-0.3 h -1.6 c -1.8,0 -2.3,-0.4 -2.3,-2.1 v -9.9 h 3.5 c 0.5,0 0.7,-0.2 0.7,-0.7 v -4 c 0,-0.4 -0.2,-0.6 -0.7,-0.6 H 203 v -5.3 c 0,-0.5 -0.4,-0.7 -0.7,-0.7 h -4.5 c -1.2,0 -2,0.5 -2,2.1 v 3.9 h -2.5 c -0.5,0 -0.7,0.2 -0.7,0.6 v 4 c 0,0.5 0.2,0.7 0.7,0.7 h 2.5 v 12.5 c 0,2.6 0.6,4.2 2.1,4.9 0.8,0.3 1.5,0.5 2.1,0.6 0.7,0.1 1.6,0.1 2.8,0.1 1.1,0 2.5,-0.2 4.1,-0.5 0.5,-0.1 0.7,-0.4 0.7,-0.8 v -4.3 c 0,-0.3 -0.3,-0.5 -0.7,-0.5 z"
   class="st9"
   inkscape:connector-curvature="0"
   style="fill:#002169" />
	<g
   id="g962">
		<path
   id="path924"
   d="m 104.9,10.5 c 0.1,0 0.2,0.1 0.2,0.2 v 5.4 c 0,2.2 -0.3,3.7 -1,4.5 -0.7,0.8 -2,1.2 -3.9,1.2 -0.8,0 -1.6,-0.1 -2.4,-0.2 -0.2,0 -0.3,-0.2 -0.3,-0.4 V 20 c 0,-0.1 0.1,-0.2 0.2,-0.2 h 2.5 c 1,0 1.7,-0.2 2,-0.7 0.3,-0.5 0.5,-1.5 0.5,-2.9 v -5.4 c 0,-0.1 0.1,-0.2 0.2,-0.2 h 2 z"
   class="st9"
   inkscape:connector-curvature="0"
   style="fill:#002169" />
		<path
   id="path926"
   d="m 114.1,13.4 c 0.1,0 0.2,0.1 0.2,0.2 v 7.7 c 0,0.2 0,0.2 -0.2,0.3 -0.9,0.2 -2.1,0.3 -3.6,0.3 -1.5,0 -2.3,-0.1 -2.9,-0.7 -0.6,-0.5 -0.7,-1.4 -0.7,-2.9 v -4.6 c 0,-0.1 0.1,-0.2 0.2,-0.2 h 1.8 c 0.1,0 0.2,0.1 0.2,0.2 v 4 c 0,0.7 0,1.2 0.1,1.6 0.2,0.6 0.5,0.7 1.5,0.7 h 1.3 v -6.3 c 0,-0.1 0.1,-0.2 0.2,-0.2 h 1.9 z"
   class="st9"
   inkscape:connector-curvature="0"
   style="fill:#002169" />
		<path
   id="path928"
   d="m 122.7,14 c 0.6,0.5 0.7,1.4 0.7,2.9 v 4.6 c 0,0.2 -0.1,0.2 -0.2,0.2 h -1.8 c -0.1,0 -0.2,-0.1 -0.2,-0.2 v -4 c 0,-1.1 0,-1.6 -0.3,-1.9 -0.3,-0.3 -0.5,-0.3 -1.3,-0.3 h -1.4 v 6.3 c 0,0.2 -0.1,0.2 -0.2,0.2 h -1.8 c -0.1,0 -0.2,-0.1 -0.2,-0.2 v -7.7 c 0,-0.2 0.1,-0.2 0.2,-0.2 0.8,-0.2 1.9,-0.3 3.6,-0.3 1.5,0 2.3,0.1 2.9,0.6 z"
   class="st9"
   inkscape:connector-curvature="0"
   style="fill:#002169" />
		<path
   id="path930"
   d="m 127.5,11.1 c 0.2,0 0.2,0 0.2,0.2 v 2.1 h 1.4 c 0.2,0 0.3,0.1 0.3,0.2 v 1.2 c 0,0.1 -0.1,0.2 -0.3,0.2 h -1.4 v 4.1 c 0,0.6 0.2,0.8 0.9,0.8 h 0.6 c 0.2,0 0.3,0.1 0.3,0.2 v 1.3 c 0,0.2 -0.1,0.3 -0.2,0.3 -0.4,0.1 -0.9,0.1 -1.3,0.1 -0.6,0 -0.9,0 -1.4,-0.1 -0.7,-0.2 -1,-0.7 -1,-1.8 v -4.8 h -0.9 c -0.2,0 -0.2,-0.1 -0.2,-0.2 v -1.2 c 0,-0.1 0.1,-0.2 0.2,-0.2 h 0.9 v -1.7 c 0,-0.1 0.1,-0.2 0.2,-0.2 z"
   class="st9"
   inkscape:connector-curvature="0"
   style="fill:#002169" />
		<path
   id="path932"
   d="m 137.3,14.2 c 0.6,0.7 0.7,1.6 0.7,3.4 0,1.7 -0.3,2.8 -0.7,3.4 -0.5,0.6 -1.5,0.8 -3.1,0.8 -1.5,0 -2.6,-0.3 -3.1,-0.8 -0.5,-0.6 -0.7,-1.7 -0.7,-3.4 0,-1.7 0.3,-2.8 0.7,-3.4 0.5,-0.6 1.5,-0.8 3.1,-0.8 1.6,0 2.5,0.2 3.1,0.8 z m -4.4,1.5 c -0.2,0.3 -0.3,0.9 -0.3,1.9 0,1 0.1,1.6 0.3,1.9 0.2,0.3 0.6,0.4 1.3,0.4 0.7,0 1.1,-0.1 1.3,-0.4 0.2,-0.3 0.3,-0.9 0.3,-1.9 0,-1 -0.1,-1.6 -0.3,-1.9 -0.2,-0.3 -0.6,-0.5 -1.3,-0.5 -0.7,0 -1.1,0.2 -1.3,0.5 z"
   class="st9"
   inkscape:connector-curvature="0"
   style="fill:#002169" />
		<path
   id="path934"
   d="m 145.1,13.6 c 0.2,0 0.2,0.1 0.2,0.2 v 1.1 c 0,0.2 -0.1,0.2 -0.3,0.2 h -2.7 c -0.6,0 -0.9,0.2 -0.9,0.5 v 0.1 c 0,0.3 0.2,0.5 0.7,0.7 l 1.9,0.7 c 1.2,0.4 1.6,1.1 1.6,2.2 v 0.2 c 0,1.6 -1.1,2.2 -3.2,2.2 -1.1,0 -2.1,0 -3.1,-0.1 -0.2,0 -0.3,-0.1 -0.3,-0.2 v -1.2 c 0,-0.1 0.1,-0.2 0.3,-0.2 h 3.1 c 0.8,0 1,-0.1 1,-0.5 v -0.1 c 0,-0.3 -0.2,-0.5 -0.8,-0.7 L 140.8,18 c -1,-0.3 -1.5,-1.1 -1.5,-2.3 v -0.3 c 0,-1.5 1.1,-2.1 3.4,-2.1 0.9,0.1 1.7,0.1 2.4,0.3 z"
   class="st9"
   inkscape:connector-curvature="0"
   style="fill:#002169" />
		<path
   id="path936"
   d="m 152.2,11.1 c 0.2,0 0.2,0 0.2,0.2 v 2.1 h 1.4 c 0.2,0 0.3,0.1 0.3,0.2 v 1.2 c 0,0.1 -0.1,0.2 -0.3,0.2 h -1.4 v 4.1 c 0,0.6 0.2,0.8 0.9,0.8 h 0.6 c 0.2,0 0.3,0.1 0.3,0.2 v 1.3 c 0,0.2 -0.1,0.3 -0.2,0.3 -0.4,0.1 -0.9,0.1 -1.3,0.1 -0.6,0 -0.9,0 -1.4,-0.1 -0.7,-0.2 -1,-0.7 -1,-1.8 v -4.8 h -0.9 c -0.2,0 -0.2,-0.1 -0.2,-0.2 v -1.2 c 0,-0.1 0.1,-0.2 0.2,-0.2 h 0.9 v -1.7 c 0,-0.1 0.1,-0.2 0.2,-0.2 z"
   class="st9"
   inkscape:connector-curvature="0"
   style="fill:#002169" />
		<path
   id="path938"
   d="m 160,13.5 c 0.2,0 0.2,0.1 0.2,0.3 V 15 c 0,0.1 -0.1,0.2 -0.3,0.2 h -1.4 c -0.8,0 -1,0.1 -1,0.8 v 5.5 c 0,0.2 -0.1,0.2 -0.2,0.2 h -1.8 c -0.1,0 -0.2,-0.1 -0.2,-0.2 v -6.1 c 0,-0.7 0.2,-1.3 0.6,-1.5 0.6,-0.5 1.3,-0.6 2.1,-0.6 0.9,0.1 1.6,0.1 2,0.2 z"
   class="st9"
   inkscape:connector-curvature="0"
   style="fill:#002169" />
		<path
   id="path940"
   d="m 167,14 c 0.5,0.4 0.8,1.1 0.8,1.9 v 5.2 c 0,0.2 -0.1,0.4 -0.3,0.5 -0.9,0.2 -2,0.3 -3.4,0.3 -1.3,0 -1.9,-0.1 -2.5,-0.4 -0.6,-0.4 -0.9,-1 -0.9,-2.2 0,-1 0.3,-1.6 0.7,-1.9 0.5,-0.3 1.3,-0.5 2.3,-0.5 h 1.9 v -0.5 c 0,-0.7 -0.5,-1 -1.4,-1 h -2.7 c -0.2,0 -0.2,0 -0.2,-0.2 V 14 c 0,-0.2 0,-0.2 0.2,-0.2 0.8,-0.1 1.7,-0.2 2.7,-0.2 1.3,-0.2 2.3,0 2.8,0.4 z m -1.5,4.3 h -1.7 c -0.8,0 -1,0.2 -1,0.9 0,0.7 0.3,0.9 1.3,0.9 0.6,0 1.1,0 1.5,-0.1 v -1.7 z"
   class="st9"
   inkscape:connector-curvature="0"
   style="fill:#002169" />
		<path
   id="path942"
   d="m 176.1,14 c 0.6,0.5 0.7,1.4 0.7,2.9 v 4.6 c 0,0.2 -0.1,0.2 -0.2,0.2 h -1.8 c -0.1,0 -0.2,-0.1 -0.2,-0.2 v -4 c 0,-1.1 0,-1.6 -0.3,-1.9 -0.3,-0.3 -0.5,-0.3 -1.3,-0.3 h -1.4 v 6.3 c 0,0.2 -0.1,0.2 -0.2,0.2 h -1.8 c -0.1,0 -0.2,-0.1 -0.2,-0.2 v -7.7 c 0,-0.2 0.1,-0.2 0.2,-0.2 0.8,-0.2 1.9,-0.3 3.6,-0.3 1.6,0 2.3,0.1 2.9,0.6 z"
   class="st9"
   inkscape:connector-curvature="0"
   style="fill:#002169" />
		<path
   id="path944"
   d="m 184.1,13.6 c 0.2,0 0.2,0.1 0.2,0.2 v 1.1 c 0,0.2 -0.1,0.2 -0.3,0.2 h -2.7 c -0.6,0 -0.9,0.2 -0.9,0.5 v 0.1 c 0,0.3 0.2,0.5 0.7,0.7 l 1.9,0.7 c 1.2,0.4 1.6,1.1 1.6,2.2 v 0.2 c 0,1.6 -1.1,2.2 -3.2,2.2 -1.1,0 -2.1,0 -3.1,-0.1 -0.2,0 -0.3,-0.1 -0.3,-0.2 v -1.2 c 0,-0.1 0.1,-0.2 0.3,-0.2 h 3.1 c 0.8,0 1,-0.1 1,-0.5 v -0.1 c 0,-0.3 -0.2,-0.5 -0.8,-0.7 L 179.8,18 c -1,-0.3 -1.5,-1.1 -1.5,-2.3 v -0.3 c 0,-1.5 1.1,-2.1 3.4,-2.1 0.9,0.1 1.7,0.1 2.4,0.3 z"
   class="st9"
   inkscape:connector-curvature="0"
   style="fill:#002169" />
		<path
   id="path946"
   d="m 191,10.3 c 0.2,0 0.2,0.1 0.2,0.3 v 1.2 c 0,0.2 -0.1,0.2 -0.3,0.2 h -1.2 c -0.6,0 -0.8,0.1 -0.8,0.6 v 0.8 h 1.8 c 0.1,0 0.2,0.1 0.2,0.3 l -0.2,1.3 c 0,0.1 -0.1,0.2 -0.3,0.2 h -1.5 v 6.4 c 0,0.2 -0.1,0.2 -0.2,0.2 h -1.8 c -0.1,0 -0.2,-0.1 -0.2,-0.2 v -6.4 h -1 c -0.2,0 -0.3,-0.1 -0.3,-0.2 v -1.3 c 0,-0.1 0.1,-0.2 0.3,-0.2 h 1 v -1.2 c 0,-0.9 0.3,-1.5 0.8,-1.8 0.5,-0.3 1,-0.3 1.8,-0.3 0.6,0 1.1,0 1.7,0.1 z"
   class="st9"
   inkscape:connector-curvature="0"
   style="fill:#002169" />
		<path
   id="path948"
   d="m 198.2,14.2 c 0.6,0.7 0.7,1.6 0.7,3.4 0,1.7 -0.3,2.8 -0.7,3.4 -0.5,0.6 -1.5,0.8 -3.1,0.8 -1.5,0 -2.6,-0.3 -3.1,-0.8 -0.5,-0.6 -0.7,-1.7 -0.7,-3.4 0,-1.7 0.3,-2.8 0.7,-3.4 0.5,-0.6 1.5,-0.8 3.1,-0.8 1.7,0 2.5,0.2 3.1,0.8 z m -4.3,1.5 c -0.2,0.3 -0.3,0.9 -0.3,1.9 0,1 0.1,1.6 0.3,1.9 0.2,0.3 0.6,0.4 1.3,0.4 0.7,0 1.1,-0.1 1.3,-0.4 0.2,-0.3 0.3,-0.9 0.3,-1.9 0,-1 -0.1,-1.6 -0.3,-1.9 -0.2,-0.3 -0.6,-0.5 -1.3,-0.5 -0.7,0 -1.2,0.2 -1.3,0.5 z"
   class="st9"
   inkscape:connector-curvature="0"
   style="fill:#002169" />
		<path
   id="path950"
   d="m 205.1,13.5 c 0.2,0 0.2,0.1 0.2,0.3 V 15 c 0,0.1 -0.1,0.2 -0.3,0.2 h -1.4 c -0.8,0 -1,0.1 -1,0.8 v 5.5 c 0,0.2 -0.1,0.2 -0.2,0.2 h -1.8 c -0.1,0 -0.2,-0.1 -0.2,-0.2 v -6.1 c 0,-0.7 0.2,-1.3 0.6,-1.5 0.6,-0.5 1.3,-0.6 2.1,-0.6 0.9,0.1 1.6,0.1 2,0.2 z"
   class="st9"
   inkscape:connector-curvature="0"
   style="fill:#002169" />
		<path
   id="path952"
   d="m 217.2,14 c 0.5,0.4 0.7,1.3 0.7,2.5 v 5 c 0,0.2 -0.1,0.2 -0.2,0.2 h -1.8 c -0.1,0 -0.2,-0.1 -0.2,-0.2 v -4 c -0.1,-2.2 -0.1,-2.2 -1.4,-2.2 -0.4,0 -0.8,0 -1.2,0.1 0.1,0.4 0.2,0.9 0.2,1.6 v 4.6 c 0,0.2 -0.1,0.2 -0.2,0.2 h -1.8 c -0.1,0 -0.2,-0.1 -0.2,-0.2 V 17 c 0,-0.8 0,-1.3 -0.3,-1.5 -0.3,-0.2 -0.5,-0.3 -1.1,-0.3 h -1 v 6.3 c 0,0.2 -0.1,0.2 -0.2,0.2 h -1.8 c -0.1,0 -0.2,-0.1 -0.2,-0.2 v -7.7 c 0,-0.1 0.1,-0.2 0.2,-0.2 0.8,-0.2 1.7,-0.3 2.9,-0.3 1.1,0 2,0.2 2.7,0.5 0.8,-0.3 1.7,-0.5 2.6,-0.5 1,0 1.9,0.3 2.3,0.7 z"
   class="st9"
   inkscape:connector-curvature="0"
   style="fill:#002169" />
		<path
   id="path954"
   d="m 226.1,14.2 c 0.5,0.6 0.7,1.7 0.7,3.3 V 18 c 0,0.3 -0.1,0.4 -0.5,0.4 h -4.7 c 0,0.7 0.1,1.1 0.3,1.3 0.2,0.2 0.7,0.3 1.3,0.3 h 2.6 c 0.1,0 0.2,0.1 0.2,0.2 v 1.2 c 0,0.1 -0.1,0.2 -0.2,0.2 -0.7,0.1 -1.6,0.2 -2.8,0.2 -1.5,0 -2.5,-0.3 -3,-0.8 -0.5,-0.6 -0.7,-1.7 -0.7,-3.4 0,-1.7 0.3,-2.8 0.7,-3.4 0.5,-0.6 1.5,-0.8 3,-0.8 1.6,0 2.6,0.2 3.1,0.8 z m -4.5,2.7 h 2.9 c 0,-1.3 -0.4,-1.7 -1.4,-1.7 -1.1,0.1 -1.4,0.4 -1.5,1.7 z"
   class="st9"
   inkscape:connector-curvature="0"
   style="fill:#002169" />
		<path
   id="path956"
   d="m 239,14 c 0.5,0.4 0.7,1.3 0.7,2.5 v 5 c 0,0.2 -0.1,0.2 -0.2,0.2 h -1.8 c -0.1,0 -0.2,-0.1 -0.2,-0.2 v -4 c -0.1,-2.2 -0.1,-2.2 -1.4,-2.2 -0.4,0 -0.8,0 -1.2,0.1 0.1,0.4 0.2,0.9 0.2,1.6 v 4.6 c 0,0.2 -0.1,0.2 -0.2,0.2 H 233 c -0.1,0 -0.2,-0.1 -0.2,-0.2 V 17 c 0,-0.8 0,-1.3 -0.3,-1.5 -0.3,-0.2 -0.5,-0.3 -1.1,-0.3 h -1 v 6.3 c 0,0.2 -0.1,0.2 -0.2,0.2 h -1.8 c -0.1,0 -0.2,-0.1 -0.2,-0.2 v -7.7 c 0,-0.1 0.1,-0.2 0.2,-0.2 0.8,-0.2 1.7,-0.3 2.9,-0.3 1.1,0 2,0.2 2.7,0.5 0.8,-0.3 1.7,-0.5 2.6,-0.5 1.1,0 1.9,0.3 2.4,0.7 z"
   class="st9"
   inkscape:connector-curvature="0"
   style="fill:#002169" />
		<path
   id="path958"
   d="m 248,14.2 c 0.6,0.7 0.7,1.6 0.7,3.4 0,1.7 -0.3,2.8 -0.7,3.4 -0.5,0.6 -1.5,0.8 -3.1,0.8 -1.5,0 -2.6,-0.3 -3.1,-0.8 -0.5,-0.6 -0.7,-1.7 -0.7,-3.4 0,-1.7 0.3,-2.8 0.7,-3.4 0.5,-0.6 1.5,-0.8 3.1,-0.8 1.7,0 2.5,0.2 3.1,0.8 z m -4.3,1.5 c -0.2,0.3 -0.3,0.9 -0.3,1.9 0,1 0.1,1.6 0.3,1.9 0.2,0.3 0.6,0.4 1.3,0.4 0.7,0 1.1,-0.1 1.3,-0.4 0.2,-0.3 0.3,-0.9 0.3,-1.9 0,-1 -0.1,-1.6 -0.3,-1.9 -0.2,-0.3 -0.6,-0.5 -1.3,-0.5 -0.7,0.1 -1.1,0.2 -1.3,0.5 z"
   class="st9"
   inkscape:connector-curvature="0"
   style="fill:#002169" />
		<path
   id="path960"
   d="m 255.8,13.6 c 0.2,0 0.2,0.1 0.2,0.2 v 1.1 c 0,0.2 -0.1,0.2 -0.3,0.2 H 253 c -0.6,0 -0.9,0.2 -0.9,0.5 v 0.1 c 0,0.3 0.2,0.5 0.7,0.7 l 1.9,0.7 c 1.2,0.4 1.6,1.1 1.6,2.2 v 0.2 c 0,1.6 -1.1,2.2 -3.2,2.2 -1.1,0 -2.1,0 -3.1,-0.1 -0.2,0 -0.3,-0.1 -0.3,-0.2 v -1.2 c 0,-0.1 0.1,-0.2 0.3,-0.2 h 3.1 c 0.8,0 1,-0.1 1,-0.5 v -0.1 c 0,-0.3 -0.2,-0.5 -0.8,-0.7 L 251.5,18 c -1,-0.3 -1.5,-1.1 -1.5,-2.3 v -0.3 c 0,-1.5 1.1,-2.1 3.4,-2.1 0.9,0.1 1.7,0.1 2.4,0.3 z"
   class="st9"
   inkscape:connector-curvature="0"
   style="fill:#002169" />
	</g>
	<g
   id="g998">
		<path
   id="path964"
   d="m 124.4,67.4 c -0.1,-0.5 -0.4,-0.8 -0.8,-1 -0.2,-0.1 -0.5,-0.2 -0.8,-0.2 -0.6,0 -1,0.2 -1.4,0.6 -0.4,0.4 -0.5,1 -0.5,1.9 0,0.8 0.2,1.4 0.6,1.8 0.4,0.4 0.8,0.5 1.3,0.5 0.5,0 0.9,-0.1 1.2,-0.4 0.3,-0.3 0.5,-0.6 0.6,-1.1 H 123 v -1.2 h 2.9 V 72 h -1 l -0.1,-0.9 c -0.3,0.3 -0.5,0.6 -0.7,0.7 -0.4,0.2 -0.8,0.3 -1.4,0.3 -0.9,0 -1.7,-0.3 -2.2,-1 -0.6,-0.6 -0.9,-1.5 -0.9,-2.6 0,-1.1 0.3,-2 0.9,-2.7 0.6,-0.7 1.4,-1 2.4,-1 0.9,0 1.6,0.2 2.1,0.7 0.5,0.4 0.8,1 0.9,1.7 h -1.5 z"
   class="st10"
   inkscape:connector-curvature="0"
   style="fill:#005cb9" />
		<path
   id="path966"
   d="m 132.6,71.5 c -0.5,0.5 -1.3,0.8 -2.3,0.8 -1,0 -1.7,-0.3 -2.3,-0.8 -0.7,-0.7 -1,-1.6 -1,-2.8 0,-1.3 0.3,-2.2 1,-2.8 0.5,-0.5 1.3,-0.8 2.3,-0.8 1,0 1.7,0.3 2.3,0.8 0.7,0.6 1,1.6 1,2.8 0,1.2 -0.3,2.1 -1,2.8 z m -0.9,-1.1 c 0.3,-0.4 0.5,-1 0.5,-1.8 0,-0.8 -0.2,-1.4 -0.5,-1.8 -0.3,-0.4 -0.8,-0.6 -1.4,-0.6 -0.6,0 -1,0.2 -1.4,0.6 -0.4,0.4 -0.5,1 -0.5,1.8 0,0.8 0.2,1.4 0.5,1.8 0.3,0.4 0.8,0.6 1.4,0.6 0.6,0.1 1,-0.1 1.4,-0.6 z"
   class="st10"
   inkscape:connector-curvature="0"
   style="fill:#005cb9" />
		<path
   id="path968"
   d="m 139.9,65.9 c 0.2,0.3 0.3,0.6 0.3,1.1 0,0.4 -0.1,0.8 -0.3,1 -0.1,0.1 -0.3,0.3 -0.5,0.4 0.4,0.1 0.6,0.3 0.8,0.6 0.2,0.3 0.3,0.6 0.3,1 0,0.4 -0.1,0.8 -0.3,1.1 -0.1,0.2 -0.3,0.4 -0.5,0.5 -0.2,0.2 -0.5,0.3 -0.8,0.3 -0.3,0 -0.6,0.1 -1,0.1 h -3.1 v -6.9 h 3.3 c 0.8,0.1 1.4,0.4 1.8,0.8 z m -3.8,0.5 v 1.5 h 1.7 c 0.3,0 0.5,-0.1 0.7,-0.2 0.2,-0.1 0.3,-0.3 0.3,-0.6 0,-0.3 -0.1,-0.5 -0.4,-0.6 -0.2,-0.1 -0.5,-0.1 -0.8,-0.1 z m 0,2.7 v 1.8 h 1.7 c 0.3,0 0.5,0 0.7,-0.1 0.3,-0.2 0.5,-0.4 0.5,-0.9 0,-0.4 -0.1,-0.6 -0.4,-0.7 -0.2,-0.1 -0.4,-0.1 -0.7,-0.1 z"
   class="st10"
   inkscape:connector-curvature="0"
   style="fill:#005cb9" />
		<path
   id="path970"
   d="m 142.9,72.1 h -1.4 v -6.9 h 1.4 z"
   class="st10"
   inkscape:connector-curvature="0"
   style="fill:#005cb9" />
		<path
   id="path972"
   d="m 149.4,66.4 h -3.7 v 1.5 h 3.4 v 1.2 h -3.4 v 1.8 h 3.8 v 1.2 h -5.2 v -6.9 h 5.1 z"
   class="st10"
   inkscape:connector-curvature="0"
   style="fill:#005cb9" />
		<path
   id="path974"
   d="m 155.1,65.4 c 0.3,0.1 0.5,0.3 0.6,0.5 0.1,0.2 0.3,0.4 0.3,0.6 0.1,0.2 0.1,0.5 0.1,0.7 0,0.3 -0.1,0.7 -0.2,1 -0.2,0.3 -0.4,0.5 -0.8,0.7 0.3,0.1 0.5,0.3 0.7,0.5 0.1,0.2 0.2,0.6 0.2,1.1 V 71 c 0,0.3 0,0.5 0,0.6 0,0.2 0.1,0.3 0.3,0.4 v 0.2 h -1.6 c 0,-0.2 -0.1,-0.3 -0.1,-0.4 0,-0.2 -0.1,-0.4 -0.1,-0.6 v -0.6 c 0,-0.4 -0.1,-0.7 -0.2,-0.9 -0.1,-0.1 -0.4,-0.2 -0.8,-0.2 h -1.4 v 2.7 h -1.4 v -6.9 h 3.3 c 0.5,-0.1 0.9,0 1.1,0.1 z m -3,1 v 1.9 h 1.6 c 0.3,0 0.5,0 0.7,-0.1 0.3,-0.1 0.4,-0.4 0.4,-0.8 0,-0.4 -0.1,-0.7 -0.4,-0.8 -0.1,-0.1 -0.4,-0.1 -0.7,-0.1 h -1.6 z"
   class="st10"
   inkscape:connector-curvature="0"
   style="fill:#005cb9" />
		<path
   id="path976"
   d="m 157.6,65.2 h 1.5 l 2.7,4.8 v -4.8 h 1.3 v 6.9 h -1.4 l -2.8,-4.9 v 4.9 h -1.3 z"
   class="st10"
   inkscape:connector-curvature="0"
   style="fill:#005cb9" />
		<path
   id="path978"
   d="m 169.9,71.5 c -0.5,0.5 -1.3,0.8 -2.3,0.8 -1,0 -1.7,-0.3 -2.3,-0.8 -0.7,-0.7 -1,-1.6 -1,-2.8 0,-1.3 0.3,-2.2 1,-2.8 0.5,-0.5 1.3,-0.8 2.3,-0.8 1,0 1.7,0.3 2.3,0.8 0.7,0.6 1,1.6 1,2.8 0,1.2 -0.3,2.1 -1,2.8 z M 169,70.4 c 0.3,-0.4 0.5,-1 0.5,-1.8 0,-0.8 -0.2,-1.4 -0.5,-1.8 -0.3,-0.4 -0.8,-0.6 -1.4,-0.6 -0.6,0 -1,0.2 -1.4,0.6 -0.3,0.4 -0.5,1 -0.5,1.8 0,0.8 0.2,1.4 0.5,1.8 0.3,0.4 0.8,0.6 1.4,0.6 0.6,0 1,-0.1 1.4,-0.6 z"
   class="st10"
   inkscape:connector-curvature="0"
   style="fill:#005cb9" />
		<path
   id="path980"
   d="m 178.7,65.3 c 0.5,0.2 0.9,0.5 1.2,0.9 0.2,0.3 0.4,0.7 0.5,1.1 0.1,0.4 0.1,0.8 0.1,1.1 0,0.9 -0.2,1.7 -0.6,2.3 -0.5,0.9 -1.3,1.3 -2.3,1.3 h -3 v -6.9 h 3 c 0.5,0.1 0.8,0.2 1.1,0.2 z m -2.6,1.1 v 4.5 h 1.3 c 0.7,0 1.2,-0.3 1.4,-1 0.1,-0.4 0.2,-0.8 0.2,-1.3 0,-0.7 -0.1,-1.2 -0.3,-1.6 -0.2,-0.4 -0.7,-0.6 -1.3,-0.6 z"
   class="st10"
   inkscape:connector-curvature="0"
   style="fill:#005cb9" />
		<path
   id="path982"
   d="M 186.7,66.4 H 183 v 1.5 h 3.4 v 1.2 H 183 v 1.8 h 3.8 v 1.2 h -5.2 v -6.9 h 5.1 z"
   class="st10"
   inkscape:connector-curvature="0"
   style="fill:#005cb9" />
		<path
   id="path984"
   d="m 188,65.2 h 1.4 v 5.7 h 3.4 v 1.2 H 188 Z"
   class="st10"
   inkscape:connector-curvature="0"
   style="fill:#005cb9" />
		<path
   id="path986"
   d="m 201.5,66.4 h -3.7 v 1.5 h 3.4 v 1.2 h -3.4 v 1.8 h 3.8 v 1.2 h -5.2 v -6.9 h 5.1 z"
   class="st10"
   inkscape:connector-curvature="0"
   style="fill:#005cb9" />
		<path
   id="path988"
   d="m 203.8,70 c 0,0.3 0.1,0.6 0.3,0.7 0.2,0.3 0.6,0.4 1.2,0.4 0.3,0 0.6,0 0.8,-0.1 0.4,-0.1 0.6,-0.4 0.6,-0.8 0,-0.2 -0.1,-0.4 -0.3,-0.5 -0.2,-0.1 -0.5,-0.2 -1,-0.3 l -0.7,-0.2 c -0.7,-0.2 -1.2,-0.3 -1.5,-0.5 -0.5,-0.3 -0.7,-0.8 -0.7,-1.5 0,-0.6 0.2,-1.1 0.7,-1.5 0.5,-0.4 1.1,-0.6 2,-0.6 0.7,0 1.4,0.2 1.9,0.6 0.5,0.4 0.8,0.9 0.8,1.7 h -1.4 c 0,-0.4 -0.2,-0.7 -0.6,-0.9 -0.2,-0.1 -0.5,-0.2 -0.9,-0.2 -0.4,0 -0.7,0.1 -0.9,0.2 -0.2,0.2 -0.3,0.4 -0.3,0.6 0,0.2 0.1,0.4 0.3,0.6 0.1,0.1 0.4,0.2 0.9,0.3 l 1.2,0.3 c 0.5,0.1 0.9,0.3 1.2,0.5 0.4,0.3 0.6,0.8 0.6,1.4 0,0.6 -0.2,1.2 -0.7,1.6 -0.5,0.4 -1.2,0.6 -2.1,0.6 -0.9,0 -1.6,-0.2 -2.1,-0.6 -0.5,-0.4 -0.8,-1 -0.8,-1.7 h 1.5 z"
   class="st10"
   inkscape:connector-curvature="0"
   style="fill:#005cb9" />
		<path
   id="path990"
   d="m 214.2,65.2 v 1.2 h -2.1 v 5.7 h -1.5 v -5.7 h -2.1 v -1.2 z"
   class="st10"
   inkscape:connector-curvature="0"
   style="fill:#005cb9" />
		<path
   id="path992"
   d="m 216.3,65.2 h 1.6 l 2.4,6.9 h -1.6 l -0.5,-1.4 h -2.5 l -0.5,1.4 h -1.5 z m -0.1,4.3 h 1.8 l -0.9,-2.7 z"
   class="st10"
   inkscape:connector-curvature="0"
   style="fill:#005cb9" />
		<path
   id="path994"
   d="m 225.3,65.3 c 0.5,0.2 0.9,0.5 1.2,0.9 0.2,0.3 0.4,0.7 0.5,1.1 0.1,0.4 0.1,0.8 0.1,1.1 0,0.9 -0.2,1.7 -0.6,2.3 -0.5,0.9 -1.3,1.3 -2.3,1.3 h -3 v -6.9 h 3 c 0.4,0.1 0.8,0.2 1.1,0.2 z m -2.7,1.1 v 4.5 h 1.3 c 0.7,0 1.2,-0.3 1.4,-1 0.1,-0.4 0.2,-0.8 0.2,-1.3 0,-0.7 -0.1,-1.2 -0.3,-1.6 -0.2,-0.4 -0.7,-0.6 -1.3,-0.6 z"
   class="st10"
   inkscape:connector-curvature="0"
   style="fill:#005cb9" />
		<path
   id="path996"
   d="m 233.5,71.5 c -0.5,0.5 -1.3,0.8 -2.3,0.8 -1,0 -1.7,-0.3 -2.3,-0.8 -0.7,-0.7 -1,-1.6 -1,-2.8 0,-1.3 0.3,-2.2 1,-2.8 0.5,-0.5 1.3,-0.8 2.3,-0.8 1,0 1.7,0.3 2.3,0.8 0.7,0.6 1,1.6 1,2.8 0,1.2 -0.3,2.1 -1,2.8 z m -0.9,-1.1 c 0.3,-0.4 0.5,-1 0.5,-1.8 0,-0.8 -0.2,-1.4 -0.5,-1.8 -0.3,-0.4 -0.8,-0.6 -1.4,-0.6 -0.6,0 -1,0.2 -1.4,0.6 -0.4,0.4 -0.5,1 -0.5,1.8 0,0.8 0.2,1.4 0.5,1.8 0.3,0.4 0.8,0.6 1.4,0.6 0.6,0 1,-0.1 1.4,-0.6 z"
   class="st10"
   inkscape:connector-curvature="0"
   style="fill:#005cb9" />
	</g>
</g><style
   id="style2"
   type="text/css">
	.st0{fill:#222220;}
	.st1{fill:none;}
	.st2{fill-rule:evenodd;clip-rule:evenodd;fill:#2C6245;}
	.st3{fill-rule:evenodd;clip-rule:evenodd;fill:#DDBC46;}
	.st4{fill:#2B2B2B;}
</style><style
   id="style2-2"
   type="text/css">
	.st0{fill:#222220;}
	.st1{fill:none;}
	.st2{fill-rule:evenodd;clip-rule:evenodd;fill:#2C6245;}
	.st3{fill-rule:evenodd;clip-rule:evenodd;fill:#DDBC46;}
	.st4{fill:#2B2B2B;}
</style><style
   id="style2-6"
   type="text/css">
	.st0{fill:#222220;}
	.st1{fill:none;}
	.st2{fill-rule:evenodd;clip-rule:evenodd;fill:#2C6245;}
	.st3{fill-rule:evenodd;clip-rule:evenodd;fill:#DDBC46;}
	.st4{fill:#2B2B2B;}
</style></svg>